<?xml version="1.0" encoding="UTF-8" standalone="no"?>
<!DOCTYPE svg PUBLIC "-//W3C//DTD SVG 1.1//EN" "http://www.w3.org/Graphics/SVG/1.1/DTD/svg11.dtd">
<svg width="100%" height="100%" viewBox="0 0 1886 1886" version="1.1" xmlns="http://www.w3.org/2000/svg" xmlns:xlink="http://www.w3.org/1999/xlink" xml:space="preserve" style="fill-rule:evenodd;clip-rule:evenodd;stroke-linejoin:round;stroke-miterlimit:1.41421;">
    <g transform="matrix(1.1678,0,0,1.1678,-287.279,-134.297)">
        <circle cx="1053.5" cy="922.5" r="807.5" style="fill:rgb(44,44,44);fill-opacity:0.931502;"/>
    </g>
    <g transform="matrix(1,0,0,1,-46,-48)">
        <path d="M1898,1016C1294.64,1047.88 686.302,1051.09 83,1016C83,1253.36 175.243,1413.47 276,1550C772.165,2222.32 1898,1873.89 1898,1016Z" style="fill:rgb(90,97,113);"/>
    </g>
    <g transform="matrix(1,0,0,1,-46,-48)">
        <path d="M83,962C684.787,1004.3 1290.73,1007.93 1902,962C1766.07,-281.9 117.757,-142.678 83,962Z" style="fill:rgb(90,97,113);"/>
    </g>
    <g transform="matrix(1,0,0,1,-46,-48)">
        <path d="M1569,1703C1232.4,1957.07 746.315,1988.72 419,1703C754.023,1768.7 1142.18,1765.68 1569,1703Z" style="fill:rgb(47,52,56);"/>
    </g>
    <g transform="matrix(1,0,0,1,-46,-48)">
        <path d="M1717,1552C1297.41,1581.39 869.754,1587.73 450,1567C462.725,1611.54 490.629,1655.44 529,1689C916.636,1745.76 1282.78,1733.94 1624,1653C1658.69,1622.67 1690.86,1587.48 1717,1552Z" style="fill:rgb(47,52,56);"/>
    </g>
    <g transform="matrix(1,0,0,1,-46,-48)">
        <path d="M277,1552L405,1563C415.705,1605.47 438.004,1642.78 465,1678C432.66,1674.34 400.1,1666.81 369,1657C336.2,1625.32 306.861,1589.1 277,1552Z" style="fill:rgb(47,52,56);"/>
    </g>
    <g transform="matrix(1,0,0,1,-46,-48)">
        <path d="M104,1209L203,1222C214.067,1315.87 241.519,1402.47 277,1484L222,1484C167.303,1397 128.875,1305.06 104,1209Z" style="fill:rgb(47,52,56);"/>
    </g>
    <g transform="matrix(1,0,0,1,-46,-48)">
        <path d="M452,1238L246,1225C257.498,1315.92 281.723,1402.51 321,1484L467,1491C451.819,1407.98 445.254,1323.84 452,1238Z" style="fill:rgb(47,52,56);"/>
    </g>
    <g transform="matrix(1,0,0,1,-46,-48)">
        <path d="M491,1238L594,1243C590.833,1328.13 597.834,1413.86 612,1500L512,1500C494.288,1412.77 486.255,1325.45 491,1238Z" style="fill:rgb(47,52,56);"/>
    </g>
    <g transform="matrix(1,0,0,1,-46,-48)">
        <path d="M639,1243L1198,1250L1183,1506C1007.3,1509.03 831.626,1509.1 656,1501C641.58,1415 635.128,1329 639,1243Z" style="fill:rgb(47,52,56);"/>
    </g>
    <g transform="matrix(1,0,0,1,-46,-48)">
        <path d="M1231,1249L1397,1243L1370,1499L1216,1505C1223.18,1421.16 1229.22,1341.49 1231,1249Z" style="fill:rgb(47,52,56);"/>
    </g>
    <g transform="matrix(1,0,0,1,-46,-48)">
        <path d="M1436,1243L1683,1229C1666,1317.93 1638.89,1403.56 1602,1486L1404,1500C1421.63,1414.1 1423.66,1328.4 1436,1243Z" style="fill:rgb(47,52,56);"/>
    </g>
    <g transform="matrix(1,0,0,1,-46,-48)">
        <path d="M1878,1213C1830,1218.42 1780,1221.9 1732,1224C1716.75,1305.16 1687.18,1392.81 1652,1483C1691.41,1482.99 1732.21,1481.64 1769,1479C1822.67,1398.4 1857.13,1309.82 1878,1213Z" style="fill:rgb(47,52,56);"/>
    </g>
    <g transform="matrix(1,0,0,1,-46,-48)">
        <path d="M1886,1166L1738,1178L1749.5,1091L1898,1082C1895.3,1114.03 1890.92,1140.83 1886,1166Z" style="fill:rgb(47,52,56);"/>
    </g>
    <g transform="matrix(1,0,0,1,-46,-48)">
        <path d="M1692,1183L1702,1093L1237,1108L1234,1203L1692,1183Z" style="fill:rgb(47,52,56);"/>
    </g>
    <g transform="matrix(1,0,0,1,-46,-48)">
        <path d="M1203,1108L1048,1109L1048,1205L1200,1203L1203,1108Z" style="fill:rgb(47,52,56);"/>
    </g>
    <g transform="matrix(1,0,0,1,-46,-48)">
        <path d="M1016,1110L982,1109C983.396,1138.23 985.182,1169.03 988,1204L1021,1204C1018.1,1172.47 1016.49,1141.15 1016,1110Z" style="fill:rgb(47,52,56);"/>
    </g>
    <g transform="matrix(1,0,0,1,-46,-48)">
        <path d="M951,1109L853,1110L852,1203L956,1205C952.082,1174.38 950.043,1142.61 951,1109Z" style="fill:rgb(47,52,56);"/>
    </g>
    <g transform="matrix(1,0,0,1,-46,-48)">
        <path d="M816,1109L237,1091C233.309,1119.58 235.314,1148.3 237,1177C431.453,1189.51 623.852,1198.81 813,1203L816,1109Z" style="fill:rgb(47,52,56);"/>
    </g>
    <g transform="matrix(1,0,0,1,-46,-48)">
        <path d="M83,1075C118.756,1081.04 158.295,1085.62 201,1089L201,1174L96,1166C88.69,1134.39 84.537,1104.13 83,1075Z" style="fill:rgb(47,52,56);"/>
    </g>
    <g transform="matrix(1,0,0,1,-46,-48)">
        <path d="M1879,819L1792,819L1798,914L1755,914L1752,817L1501,814L1503,923L1897,923C1894.59,889.066 1884.77,854.896 1879,819Z" style="fill:rgb(47,52,56);"/>
    </g>
    <g transform="matrix(1,0,0,1,-46,-48)">
        <path d="M1472,815L890,809L891,909L865,909C862.028,874.886 858.327,841.592 854,809C726.028,813.892 596.745,815.097 467,815C467.31,852.891 467.813,884.602 474,917L1472,923L1472,815Z" style="fill:rgb(47,52,56);"/>
    </g>
    <g transform="matrix(1,0,0,1,-46,-48)">
        <path d="M429,814L434,919L82,923C83.494,889.092 87.472,854.735 95,819L429,814Z" style="fill:rgb(47,52,56);"/>
    </g>
    <g transform="matrix(1,0,0,1,-46,-48)">
        <path d="M186,553L283,553L237,776L106,776C124.809,692.748 149.493,617.883 186,553Z" style="fill:rgb(47,52,56);"/>
    </g>
    <g transform="matrix(1,0,0,1,-46,-48)">
        <path d="M467,537.806L324,544C295.182,618.472 284.085,696.676 277,776L429,776C427.921,697.001 440.734,617.666 467,537.806Z" style="fill:rgb(47,52,56);"/>
    </g>
    <g transform="matrix(1.0025,0,0,1.00813,-48.1675,-54.3089)">
        <path d="M501,537.806C478.801,617.528 468.839,696.885 467,776L853.993,771.04L867,530C744.942,528.649 622.949,531.744 501,537.806Z" style="fill:rgb(47,52,56);"/>
    </g>
    <g transform="matrix(1,0,0,1,-46,-48)">
        <path d="M1718,550C1447.31,534.836 1176.64,526.783 906,526C893.837,607.993 886.787,691.079 891,776L1748,776C1743.43,699.738 1732.9,624.495 1718,550Z" style="fill:rgb(47,52,56);"/>
    </g>
    <g transform="matrix(1,0,0,1,-46,-48)">
        <path d="M1784,553L1757,553C1773.04,627.072 1782.52,701.444 1788,776L1869,778C1845.77,691.877 1817.74,617.66 1784,553Z" style="fill:rgb(47,52,56);"/>
    </g>
    <g transform="matrix(1,0,0,1,-46,-48)">
        <path d="M1743,481C1429.08,464.41 1114.11,453.569 800,457C791.125,411.291 796.983,365.913 801,322C1088.35,313.034 1366.33,324.681 1661,373C1694.03,406.619 1718.3,442.458 1743,481Z" style="fill:rgb(47,52,56);"/>
    </g>
    <g transform="matrix(1,0,0,1,-46,-48)">
        <path d="M770,322C764.504,370.079 764.401,415.79 770,459C590.528,465.412 404.4,472.911 227,481C253.388,441.269 285.289,400.786 317,367C465.474,344.309 620.035,333.081 770,322Z" style="fill:rgb(47,52,56);"/>
    </g>
    <g transform="matrix(1,0,0,1,-46,-48)">
        <path d="M1614,326C1354.04,292.44 1092.83,267.789 826,283C839.431,214.759 861.27,149.044 892,86C1180.73,57.229 1427.95,140.134 1614,326Z" style="fill:rgb(47,52,56);"/>
    </g>
    <g transform="matrix(1,0,0,1,-46,-48)">
        <path d="M865,86C824.972,179.395 802.477,241.953 797,283L588,297C594.176,272.706 605.835,246.234 622,226C614.565,222.738 606.555,218.791 597,213C577.18,235.838 560.832,269.047 540,301L361,322C497.136,200.849 660.006,112.956 865,86Z" style="fill:rgb(47,52,56);"/>
    </g>
    <g transform="matrix(0.943802,-0.36912,0.382332,0.977583,-223.013,495.953)">
        <path d="M1333.67,280.623C1465.58,280.623 1577.08,393.044 1584.62,545.185C1592.26,699.254 1486.31,814.438 1348.91,813.187C1217.01,811.986 1094.76,690.539 1094.76,538.211C1094.76,385.882 1201.76,280.623 1333.67,280.623Z" style="fill:rgb(67,71,79);"/>
        <path d="M1415.74,295.734L1416.43,296.001L1417.13,296.269L1417.83,296.541L1418.52,296.814L1419.21,297.089L1419.91,297.367L1420.6,297.647L1421.29,297.929L1421.98,298.213L1422.67,298.5L1423.36,298.789L1424.05,299.079L1424.73,299.372L1425.42,299.668L1426.1,299.965L1426.79,300.264L1427.47,300.566L1428.15,300.87L1428.83,301.176L1429.51,301.484L1430.19,301.794L1430.87,302.107L1431.55,302.421L1432.23,302.738L1432.9,303.057L1433.58,303.378L1434.25,303.701L1434.92,304.026L1435.59,304.353L1436.26,304.683L1436.93,305.014L1437.6,305.348L1438.27,305.684L1438.93,306.022L1439.6,306.361L1440.26,306.704L1440.93,307.048L1441.59,307.394L1442.25,307.742L1442.91,308.093L1443.57,308.445L1444.23,308.8L1444.89,309.157L1445.54,309.515L1446.2,309.876L1446.85,310.239L1447.5,310.604L1448.16,310.971L1448.81,311.34L1449.46,311.711L1450.11,312.084L1450.75,312.46L1451.4,312.837L1452.05,313.216L1452.69,313.598L1453.33,313.981L1453.98,314.366L1454.62,314.754L1455.26,315.143L1455.9,315.535L1456.53,315.928L1457.17,316.324L1457.81,316.721L1458.44,317.121L1459.07,317.522L1459.71,317.926L1460.34,318.331L1460.97,318.739L1461.6,319.148L1462.22,319.56L1462.85,319.973L1463.48,320.389L1464.1,320.806L1464.72,321.226L1465.35,321.647L1465.97,322.07L1466.59,322.496L1467.2,322.923L1467.82,323.352L1468.44,323.784L1469.05,324.217L1469.67,324.652L1470.28,325.089L1470.89,325.528L1471.5,325.969L1472.11,326.412L1472.72,326.856L1473.32,327.303L1473.93,327.752L1474.53,328.202L1475.14,328.655L1475.74,329.109L1476.34,329.566L1476.94,330.024L1477.54,330.484L1478.13,330.946L1478.73,331.41L1479.32,331.876L1479.92,332.344L1480.51,332.813L1481.1,333.285L1481.69,333.758L1482.28,334.234L1482.86,334.711L1483.45,335.19L1484.03,335.671L1484.62,336.153L1485.2,336.638L1485.78,337.125L1486.36,337.613L1486.93,338.103L1487.51,338.595L1488.09,339.089L1488.66,339.585L1489.23,340.083L1489.8,340.582L1490.37,341.083L1490.94,341.586L1491.51,342.091L1492.08,342.598L1492.64,343.107L1493.2,343.617L1493.77,344.129L1494.33,344.643L1494.89,345.159L1495.44,345.677L1496,346.196L1496.56,346.718L1497.11,347.241L1497.66,347.765L1498.21,348.292L1498.76,348.82L1499.31,349.351L1499.86,349.883L1500.4,350.416L1500.95,350.952L1501.49,351.489L1502.03,352.028L1502.57,352.569L1503.11,353.112L1503.65,353.656L1504.18,354.202L1504.72,354.75L1505.25,355.3L1505.79,355.851L1506.32,356.404L1506.84,356.959L1507.37,357.516L1507.9,358.074L1508.42,358.634L1508.94,359.196L1509.47,359.759L1509.99,360.324L1510.51,360.891L1511.02,361.46L1511.54,362.03L1512.05,362.602L1512.57,363.176L1513.08,363.751L1513.59,364.328L1514.1,364.907L1514.6,365.488L1515.11,366.07L1515.61,366.654L1516.11,367.239L1516.62,367.827L1517.11,368.415L1517.61,369.006L1518.11,369.598L1518.6,370.192L1519.1,370.788L1519.59,371.385L1520.08,371.984L1520.57,372.584L1521.06,373.187L1521.54,373.79L1522.03,374.396L1522.51,375.003L1522.99,375.612L1523.47,376.222L1523.95,376.834L1524.42,377.448L1524.9,378.063L1525.37,378.68L1525.84,379.298L1526.31,379.918L1526.78,380.54L1527.25,381.163L1527.71,381.788L1528.18,382.415L1528.64,383.043L1529.1,383.672L1529.56,384.304L1530.02,384.936L1530.48,385.571L1530.93,386.207L1531.38,386.844L1531.83,387.484L1532.28,388.124L1532.73,388.767L1533.18,389.41L1533.62,390.056L1534.06,390.703L1534.51,391.351L1534.94,392.001L1535.38,392.653L1535.82,393.306L1536.25,393.961L1536.69,394.617L1537.12,395.275L1537.55,395.934L1537.98,396.595L1538.4,397.257L1538.83,397.921L1539.25,398.586L1539.67,399.253L1540.09,399.922L1540.51,400.592L1540.92,401.263L1541.34,401.936L1541.75,402.61L1542.16,403.286L1542.57,403.964L1542.98,404.643L1543.39,405.323L1543.79,406.005L1544.19,406.688L1544.59,407.373L1544.99,408.059L1545.39,408.747L1545.79,409.436L1546.18,410.127L1546.57,410.819L1546.96,411.513L1547.35,412.208L1547.74,412.904L1548.12,413.602L1548.51,414.301L1548.89,415.002L1549.27,415.704L1549.65,416.408L1550.02,417.113L1550.4,417.82L1550.77,418.528L1551.14,419.237L1551.51,419.948L1551.88,420.66L1552.24,421.374L1552.61,422.089L1552.97,422.805L1553.33,423.523L1553.68,424.242L1554.04,424.963L1554.4,425.685L1554.75,426.408L1555.1,427.133L1555.45,427.859L1555.8,428.587L1556.14,429.316L1556.49,430.046L1556.83,430.777L1557.17,431.51L1557.5,432.245L1557.84,432.981L1558.17,433.718L1558.51,434.456L1558.84,435.196L1559.17,435.937L1559.49,436.679L1559.82,437.423L1560.14,438.168L1560.46,438.915L1560.78,439.663L1561.1,440.412L1561.41,441.162L1561.73,441.914L1562.04,442.667L1562.35,443.421L1562.65,444.177L1562.96,444.934L1563.26,445.692L1563.57,446.452L1563.87,447.213L1564.16,447.975L1564.46,448.739L1564.75,449.503L1565.05,450.27L1565.34,451.037L1565.62,451.805L1565.91,452.575L1566.19,453.346L1566.48,454.119L1566.76,454.893L1567.04,455.668L1567.31,456.444L1567.59,457.221L1567.86,458L1568.13,458.78L1568.4,459.561L1568.66,460.343L1568.93,461.127L1569.19,461.912L1569.45,462.698L1569.71,463.486L1569.97,464.274L1570.22,465.064L1570.47,465.855L1570.73,466.647L1570.97,467.441L1571.22,468.235L1571.46,469.031L1571.71,469.828L1571.95,470.627L1572.18,471.426L1572.42,472.227L1572.65,473.029L1572.89,473.832L1573.12,474.636L1573.34,475.441L1573.57,476.248L1573.79,477.055L1574.01,477.864L1574.23,478.674L1574.45,479.486L1574.67,480.298L1574.88,481.112L1575.09,481.926L1575.3,482.742L1575.51,483.559L1575.71,484.377L1575.91,485.197L1576.12,486.017L1576.31,486.839L1576.51,487.661L1576.7,488.485L1576.9,489.31L1577.09,490.136L1577.27,490.963L1577.46,491.792L1577.64,492.621L1577.82,493.451L1578,494.283L1578.18,495.116L1578.36,495.95L1578.53,496.784L1578.7,497.62L1578.87,498.458L1579.03,499.296L1579.2,500.135L1579.36,500.975L1579.52,501.817L1579.67,502.659L1579.83,503.503L1579.98,504.347L1580.13,505.193L1580.28,506.04L1580.43,506.887L1580.57,507.736L1580.72,508.586L1580.86,509.437L1580.99,510.289L1581.13,511.142L1581.26,511.996L1581.39,512.851L1581.52,513.707L1581.65,514.564L1581.77,515.423L1581.89,516.282L1582.01,517.142L1582.13,518.003L1582.24,518.865L1582.36,519.729L1582.47,520.593L1582.58,521.458L1582.68,522.324L1582.79,523.191L1582.89,524.06L1582.99,524.929L1583.08,525.799L1583.18,526.67L1583.27,527.542L1583.36,528.415L1583.45,529.29L1583.53,530.165L1583.62,531.041L1583.69,531.918L1583.77,532.795L1583.85,533.674L1583.92,534.554L1584,535.435L1584.06,536.317L1584.13,537.199L1584.19,538.083L1584.26,538.968L1584.32,539.853L1584.37,540.739L1584.43,541.627L1584.48,542.515L1584.53,543.404L1584.58,544.294L1584.62,545.185L1584.67,546.088L1584.71,546.989L1584.75,547.89L1584.78,548.789L1584.82,549.688L1584.85,550.586L1584.87,551.482L1584.9,552.378L1584.92,553.274L1584.94,554.168L1584.96,555.061L1584.98,555.953L1584.99,556.844L1585,557.735L1585.01,558.624L1585.01,559.513L1585.01,560.4L1585.01,561.287L1585.01,562.173L1585,563.058L1585,563.941L1584.99,564.824L1584.97,565.706L1584.96,566.587L1584.94,567.467L1584.92,568.346L1584.9,569.224L1584.87,570.101L1584.84,570.977L1584.81,571.852L1584.78,572.725L1584.75,573.598L1584.71,574.47L1584.67,575.341L1584.62,576.211L1584.58,577.08L1584.53,577.948L1584.48,578.815L1584.43,579.681L1584.37,580.546L1584.32,581.41L1584.26,582.273L1584.19,583.135L1584.13,583.995L1584.06,584.855L1583.99,585.714L1583.92,586.571L1583.85,587.428L1583.77,588.283L1583.69,589.138L1583.61,589.991L1583.52,590.843L1583.44,591.695L1583.35,592.545L1583.26,593.394L1583.16,594.242L1583.07,595.089L1582.97,595.935L1582.87,596.779L1582.76,597.623L1582.66,598.466L1582.55,599.307L1582.44,600.147L1582.32,600.987L1582.21,601.825L1582.09,602.662L1581.97,603.498L1581.85,604.333L1581.72,605.166L1581.6,605.999L1581.47,606.83L1581.34,607.66L1581.2,608.489L1581.07,609.317L1580.93,610.144L1580.79,610.97L1580.64,611.794L1580.5,612.618L1580.35,613.44L1580.2,614.261L1580.05,615.081L1579.89,615.9L1579.73,616.717L1579.57,617.533L1579.41,618.349L1579.25,619.163L1579.08,619.975L1578.91,620.787L1578.74,621.597L1578.57,622.407L1578.39,623.215L1578.22,624.021L1578.04,624.827L1577.85,625.631L1577.67,626.434L1577.48,627.236L1577.29,628.037L1577.1,628.837L1576.91,629.635L1576.71,630.432L1576.51,631.228L1576.31,632.022L1576.11,632.816L1575.91,633.608L1575.7,634.398L1575.49,635.188L1575.28,635.976L1575.07,636.763L1574.85,637.549L1574.63,638.334L1574.41,639.117L1574.19,639.899L1573.97,640.68L1573.74,641.459L1573.51,642.237L1573.28,643.014L1573.05,643.789L1572.81,644.564L1572.57,645.337L1572.33,646.108L1572.09,646.879L1571.85,647.648L1571.6,648.415L1571.35,649.182L1571.1,649.947L1570.85,650.71L1570.6,651.473L1570.34,652.234L1570.08,652.994L1569.82,653.752L1569.56,654.509L1569.29,655.265L1569.02,656.019L1568.75,656.772L1568.48,657.524L1568.21,658.274L1567.93,659.023L1567.65,659.771L1567.37,660.517L1567.09,661.262L1566.81,662.006L1566.52,662.748L1566.23,663.488L1565.94,664.228L1565.65,664.966L1565.35,665.702L1565.06,666.437L1564.76,667.171L1564.46,667.903L1564.15,668.634L1563.85,669.364L1563.54,670.092L1563.23,670.819L1562.92,671.544L1562.61,672.268L1562.29,672.99L1561.98,673.711L1561.66,674.431L1561.34,675.149L1561.01,675.866L1560.69,676.581L1560.36,677.295L1560.03,678.007L1559.7,678.718L1559.37,679.428L1559.03,680.135L1558.69,680.842L1558.36,681.547L1558.02,682.251L1557.67,682.953L1557.33,683.653L1556.98,684.352L1556.63,685.05L1556.28,685.746L1555.93,686.441L1555.57,687.134L1555.21,687.826L1554.86,688.516L1554.49,689.205L1554.13,689.892L1553.77,690.577L1553.4,691.261L1553.03,691.944L1552.66,692.625L1552.29,693.305L1551.91,693.983L1551.54,694.659L1551.16,695.334L1550.78,696.007L1550.4,696.679L1550.01,697.35L1549.63,698.018L1549.24,698.685L1548.85,699.351L1548.46,700.015L1548.07,700.678L1547.67,701.339L1547.27,701.998L1546.88,702.656L1546.47,703.312L1546.07,703.967L1545.67,704.62L1545.26,705.271L1544.85,705.921L1544.44,706.569L1544.03,707.216L1543.62,707.861L1543.2,708.504L1542.78,709.146L1542.36,709.786L1541.94,710.425L1541.52,711.062L1541.1,711.697L1540.67,712.331L1540.24,712.963L1539.81,713.593L1539.38,714.222L1538.94,714.849L1538.51,715.475L1538.07,716.099L1537.63,716.721L1537.19,717.342L1536.75,717.961L1536.3,718.578L1535.86,719.193L1535.41,719.807L1534.96,720.419L1534.51,721.03L1534.05,721.639L1533.6,722.246L1533.14,722.852L1532.68,723.455L1532.22,724.058L1531.76,724.658L1531.3,725.257L1530.83,725.854L1530.36,726.449L1529.89,727.043L1529.42,727.635L1528.95,728.225L1528.48,728.813L1528,729.4L1527.52,729.985L1527.04,730.568L1526.56,731.15L1526.08,731.729L1525.59,732.307L1525.11,732.884L1524.62,733.458L1524.13,734.031L1523.64,734.602L1523.15,735.171L1522.65,735.739L1522.15,736.305L1521.66,736.869L1521.16,737.431L1520.66,737.991L1520.15,738.55L1519.65,739.107L1519.14,739.662L1518.63,740.215L1518.12,740.766L1517.61,741.316L1517.1,741.864L1516.59,742.41L1516.07,742.954L1515.55,743.497L1515.03,744.037L1514.51,744.576L1513.99,745.113L1513.46,745.648L1512.94,746.182L1512.41,746.713L1511.88,747.243L1511.35,747.771L1510.82,748.297L1510.29,748.821L1509.75,749.343L1509.21,749.864L1508.68,750.382L1508.14,750.899L1507.59,751.414L1507.05,751.927L1506.51,752.438L1505.96,752.947L1505.41,753.455L1504.86,753.96L1504.31,754.464L1503.76,754.965L1503.2,755.465L1502.65,755.963L1502.09,756.459L1501.53,756.953L1500.97,757.445L1500.41,757.936L1499.85,758.424L1499.28,758.911L1498.72,759.395L1498.15,759.878L1497.58,760.358L1497.01,760.837L1496.44,761.314L1495.87,761.789L1495.29,762.262L1494.71,762.733L1494.13,763.202L1493.56,763.669L1492.97,764.134L1492.39,764.598L1491.81,765.059L1491.22,765.518L1490.63,765.975L1490.05,766.431L1489.46,766.884L1488.87,767.336L1488.27,767.785L1487.68,768.232L1487.08,768.678L1486.49,769.121L1485.89,769.563L1485.29,770.002L1484.69,770.44L1484.08,770.875L1483.48,771.308L1482.87,771.74L1482.27,772.169L1481.66,772.597L1481.05,773.022L1480.44,773.445L1479.83,773.867L1479.21,774.286L1478.6,774.703L1477.98,775.118L1477.36,775.531L1476.74,775.943L1476.12,776.352L1475.5,776.759L1474.88,777.163L1474.25,777.566L1473.62,777.967L1473,778.366L1472.37,778.763L1471.74,779.157L1471.11,779.55L1470.47,779.94L1469.84,780.328L1469.2,780.715L1468.57,781.099L1467.93,781.481L1467.29,781.861L1466.65,782.239L1466,782.614L1465.36,782.988L1464.71,783.36L1464.07,783.729L1463.42,784.096L1462.77,784.461L1462.12,784.824L1461.47,785.185L1460.82,785.544L1460.16,785.901L1459.51,786.255L1458.85,786.608L1458.2,786.958L1457.54,787.306L1456.88,787.652L1456.21,787.995L1455.55,788.337L1454.89,788.676L1454.22,789.014L1453.56,789.349L1452.89,789.682L1452.22,790.012L1451.55,790.341L1450.88,790.667L1450.21,790.991L1449.53,791.313L1448.86,791.633L1448.18,791.951L1447.5,792.266L1446.83,792.579L1446.14,792.89L1445.46,793.199L1444.78,793.505L1444.1,793.809L1443.41,794.112L1442.73,794.411L1442.04,794.709L1441.35,795.004L1440.66,795.297L1439.97,795.588L1439.28,795.877L1438.59,796.163L1437.89,796.447L1437.2,796.729L1436.5,797.009L1435.81,797.286L1435.11,797.561L1434.41,797.834L1433.71,798.105L1433,798.373L1432.3,798.639L1431.6,798.903L1430.89,799.164L1430.18,799.423L1429.48,799.68L1428.77,799.935L1428.06,800.187L1427.35,800.437L1426.64,800.684L1425.92,800.93L1425.21,801.173L1424.49,801.413L1423.78,801.652L1423.06,801.888L1422.34,802.121L1421.62,802.353L1420.9,802.582L1420.18,802.809L1419.46,803.033L1418.73,803.255L1418.01,803.475L1417.28,803.692L1416.55,803.907L1415.83,804.119L1415.1,804.33L1414.37,804.537L1413.64,804.743L1412.9,804.946L1412.17,805.147L1411.44,805.345L1410.7,805.541L1409.96,805.735L1409.23,805.926L1408.49,806.115L1407.75,806.301L1407.01,806.485L1406.27,806.667L1405.53,806.846L1404.78,807.023L1404.04,807.197L1403.29,807.369L1402.55,807.538L1401.8,807.706L1401.05,807.87L1400.3,808.032L1399.55,808.192L1398.8,808.35L1398.05,808.504L1397.3,808.657L1396.54,808.807L1395.79,808.954L1395.03,809.1L1394.28,809.242L1393.52,809.382L1392.76,809.52L1392,809.655L1391.24,809.788L1390.48,809.918L1389.72,810.046L1388.95,810.172L1388.19,810.294L1387.42,810.415L1386.66,810.533L1385.89,810.648L1385.12,810.761L1384.36,810.871L1383.59,810.979L1382.82,811.084L1382.05,811.187L1381.27,811.287L1380.5,811.385L1379.73,811.48L1378.95,811.573L1378.18,811.663L1377.4,811.751L1376.62,811.836L1375.84,811.918L1375.07,811.998L1374.29,812.076L1373.51,812.151L1372.72,812.223L1371.94,812.293L1371.16,812.36L1370.38,812.425L1369.59,812.487L1368.8,812.546L1368.02,812.603L1367.23,812.658L1366.44,812.709L1365.65,812.759L1364.87,812.805L1364.07,812.849L1363.28,812.89L1362.49,812.929L1361.7,812.965L1360.9,812.999L1360.11,813.03L1359.32,813.058L1358.52,813.084L1357.72,813.107L1356.93,813.128L1356.13,813.145L1355.33,813.161L1354.53,813.173L1353.73,813.183L1352.93,813.19L1352.13,813.195L1351.32,813.197L1350.52,813.196L1349.72,813.193L1348.91,813.187L1348.14,813.178L1347.37,813.167L1346.59,813.153L1345.82,813.137L1345.05,813.117L1344.28,813.095L1343.51,813.07L1342.74,813.043L1341.97,813.013L1341.19,812.98L1340.42,812.944L1339.65,812.905L1338.88,812.864L1338.12,812.82L1337.35,812.774L1336.58,812.725L1335.81,812.673L1335.04,812.618L1334.27,812.561L1333.51,812.501L1332.74,812.438L1331.97,812.373L1331.2,812.305L1330.44,812.235L1329.67,812.161L1328.91,812.085L1328.14,812.007L1327.38,811.926L1326.61,811.842L1325.85,811.755L1325.08,811.666L1324.32,811.574L1323.56,811.48L1322.8,811.383L1322.03,811.283L1321.27,811.181L1320.51,811.076L1319.75,810.969L1318.99,810.859L1318.23,810.746L1317.47,810.631L1316.71,810.513L1315.95,810.393L1315.19,810.27L1314.43,810.144L1313.68,810.016L1312.92,809.886L1312.16,809.752L1311.4,809.616L1310.65,809.478L1309.89,809.337L1309.14,809.194L1308.38,809.048L1307.63,808.899L1306.88,808.748L1306.12,808.594L1305.37,808.438L1304.62,808.279L1303.87,808.118L1303.12,807.955L1302.37,807.788L1301.62,807.62L1300.87,807.448L1300.12,807.275L1299.37,807.098L1298.62,806.92L1297.88,806.738L1297.13,806.555L1296.39,806.368L1295.64,806.18L1294.9,805.989L1294.15,805.795L1293.41,805.599L1292.66,805.4L1291.92,805.199L1291.18,804.996L1290.44,804.79L1289.7,804.582L1288.96,804.371L1288.22,804.158L1287.48,803.942L1286.74,803.724L1286.01,803.504L1285.27,803.281L1284.53,803.055L1283.8,802.828L1283.06,802.597L1282.33,802.365L1281.59,802.13L1280.86,801.893L1280.13,801.653L1279.4,801.411L1278.67,801.166L1277.94,800.919L1277.21,800.67L1276.48,800.418L1275.75,800.164L1275.02,799.908L1274.3,799.649L1273.57,799.388L1272.84,799.125L1272.12,798.859L1271.4,798.591L1270.67,798.32L1269.95,798.047L1269.23,797.772L1268.51,797.495L1267.79,797.215L1267.07,796.933L1266.35,796.648L1265.63,796.361L1264.92,796.072L1264.2,795.781L1263.48,795.487L1262.77,795.191L1262.06,794.893L1261.34,794.593L1260.63,794.29L1259.92,793.985L1259.21,793.677L1258.5,793.367L1257.79,793.056L1257.08,792.741L1256.38,792.425L1255.67,792.106L1254.96,791.785L1254.26,791.462L1253.56,791.136L1252.85,790.809L1252.15,790.479L1251.45,790.147L1250.75,789.812L1250.05,789.476L1249.35,789.137L1248.65,788.796L1247.96,788.452L1247.26,788.107L1246.57,787.759L1245.87,787.409L1245.18,787.057L1244.49,786.703L1243.8,786.346L1243.11,785.988L1242.41,785.627L1241.73,785.264L1241.04,784.899L1240.35,784.531L1239.67,784.162L1238.98,783.79L1238.3,783.416L1237.62,783.04L1236.93,782.662L1236.25,782.282L1235.58,781.899L1234.9,781.515L1234.22,781.128L1233.54,780.739L1232.87,780.348L1232.19,779.955L1231.52,779.56L1230.85,779.163L1230.17,778.763L1229.5,778.362L1228.83,777.958L1228.16,777.552L1227.5,777.145L1226.83,776.735L1226.17,776.323L1225.5,775.909L1224.84,775.492L1224.18,775.074L1223.52,774.654L1222.86,774.232L1222.2,773.807L1221.54,773.381L1220.88,772.952L1220.23,772.522L1219.57,772.089L1218.92,771.654L1218.27,771.218L1217.62,770.779L1216.97,770.338L1216.32,769.895L1215.67,769.451L1215.03,769.004L1214.38,768.555L1213.74,768.104L1213.09,767.651L1212.45,767.196L1211.81,766.739L1211.17,766.281L1210.53,765.82L1209.89,765.357L1209.26,764.892L1208.62,764.425L1207.99,763.957L1207.36,763.486L1206.73,763.013L1206.1,762.539L1205.47,762.062L1204.84,761.583L1204.22,761.103L1203.59,760.62L1202.97,760.136L1202.35,759.65L1201.72,759.161L1201.1,758.671L1200.49,758.179L1199.87,757.685L1199.25,757.189L1198.64,756.691L1198.02,756.192L1197.41,755.69L1196.8,755.186L1196.19,754.681L1195.58,754.173L1194.98,753.664L1194.37,753.153L1193.77,752.64L1193.16,752.125L1192.56,751.608L1191.96,751.09L1191.36,750.569L1190.76,750.047L1190.17,749.522L1189.57,748.996L1188.98,748.468L1188.38,747.939L1187.79,747.407L1187.2,746.874L1186.62,746.338L1186.03,745.801L1185.44,745.262L1184.86,744.721L1184.28,744.179L1183.7,743.634L1183.12,743.088L1182.54,742.54L1181.96,741.99L1181.38,741.439L1180.81,740.885L1180.24,740.33L1179.67,739.773L1179.1,739.214L1178.53,738.654L1177.96,738.092L1177.4,737.527L1176.83,736.962L1176.27,736.394L1175.71,735.825L1175.15,735.253L1174.59,734.681L1174.03,734.106L1173.48,733.53L1172.92,732.952L1172.37,732.372L1171.82,731.79L1171.27,731.207L1170.73,730.622L1170.18,730.035L1169.63,729.447L1169.09,728.857L1168.55,728.265L1168.01,727.671L1167.47,727.076L1166.94,726.479L1166.4,725.88L1165.87,725.28L1165.34,724.678L1164.8,724.074L1164.28,723.469L1163.75,722.862L1163.22,722.253L1162.7,721.643L1162.18,721.031L1161.65,720.417L1161.13,719.802L1160.62,719.185L1160.1,718.566L1159.59,717.946L1159.07,717.324L1158.56,716.701L1158.05,716.076L1157.55,715.449L1157.04,714.82L1156.53,714.19L1156.03,713.559L1155.53,712.926L1155.03,712.291L1154.53,711.654L1154.04,711.016L1153.54,710.377L1153.05,709.736L1152.56,709.093L1152.07,708.449L1151.58,707.803L1151.09,707.155L1150.61,706.506L1150.13,705.856L1149.65,705.204L1149.17,704.55L1148.69,703.895L1148.21,703.238L1147.74,702.579L1147.27,701.92L1146.8,701.258L1146.33,700.595L1145.86,699.931L1145.4,699.265L1144.93,698.597L1144.47,697.928L1144.01,697.258L1143.55,696.586L1143.1,695.912L1142.64,695.237L1142.19,694.561L1141.74,693.882L1141.29,693.203L1140.84,692.522L1140.4,691.84L1139.95,691.156L1139.51,690.47L1139.07,689.783L1138.63,689.095L1138.2,688.405L1137.76,687.714L1137.33,687.021L1136.9,686.327L1136.47,685.631L1136.05,684.934L1135.62,684.236L1135.2,683.536L1134.78,682.835L1134.36,682.132L1133.94,681.428L1133.52,680.722L1133.11,680.015L1132.7,679.307L1132.29,678.597L1131.88,677.886L1131.48,677.173L1131.07,676.459L1130.67,675.744L1130.27,675.027L1129.87,674.309L1129.48,673.59L1129.08,672.869L1128.69,672.147L1128.3,671.423L1127.91,670.698L1127.52,669.972L1127.14,669.244L1126.76,668.515L1126.38,667.785L1126,667.053L1125.62,666.32L1125.25,665.586L1124.88,664.85L1124.51,664.113L1124.14,663.375L1123.77,662.635L1123.41,661.894L1123.05,661.152L1122.69,660.409L1122.33,659.664L1121.97,658.918L1121.62,658.17L1121.27,657.421L1120.92,656.671L1120.57,655.92L1120.22,655.168L1119.88,654.414L1119.54,653.659L1119.2,652.902L1118.86,652.145L1118.53,651.386L1118.19,650.626L1117.86,649.865L1117.54,649.102L1117.21,648.338L1116.88,647.573L1116.56,646.807L1116.24,646.039L1115.92,645.27L1115.61,644.501L1115.29,643.729L1114.98,642.957L1114.67,642.183L1114.37,641.409L1114.06,640.633L1113.76,639.855L1113.46,639.077L1113.16,638.297L1112.86,637.517L1112.57,636.735L1112.28,635.952L1111.99,635.167L1111.7,634.382L1111.41,633.595L1111.13,632.808L1110.85,632.019L1110.57,631.229L1110.3,630.438L1110.02,629.645L1109.75,628.852L1109.48,628.057L1109.21,627.261L1108.95,626.464L1108.69,625.666L1108.43,624.867L1108.17,624.067L1107.91,623.266L1107.66,622.463L1107.41,621.66L1107.16,620.855L1106.91,620.049L1106.67,619.243L1106.43,618.435L1106.19,617.626L1105.95,616.816L1105.71,616.004L1105.48,615.192L1105.25,614.379L1105.02,613.565L1104.8,612.749L1104.58,611.933L1104.35,611.115L1104.14,610.297L1103.92,609.477L1103.71,608.656L1103.5,607.835L1103.29,607.012L1103.08,606.188L1102.88,605.363L1102.67,604.538L1102.47,603.711L1102.28,602.883L1102.08,602.054L1101.89,601.225L1101.7,600.394L1101.51,599.562L1101.33,598.729L1101.15,597.895L1100.97,597.061L1100.79,596.225L1100.61,595.388L1100.44,594.55L1100.27,593.712L1100.1,592.872L1099.94,592.032L1099.78,591.19L1099.62,590.348L1099.46,589.504L1099.3,588.66L1099.15,587.815L1099,586.968L1098.85,586.121L1098.71,585.273L1098.57,584.424L1098.43,583.574L1098.29,582.723L1098.15,581.871L1098.02,581.019L1097.89,580.165L1097.77,579.311L1097.64,578.455L1097.52,577.599L1097.4,576.742L1097.28,575.884L1097.17,575.025L1097.06,574.165L1096.95,573.305L1096.84,572.443L1096.74,571.581L1096.63,570.718L1096.54,569.853L1096.44,568.988L1096.35,568.123L1096.26,567.256L1096.17,566.389L1096.08,565.52L1096,564.651L1095.92,563.781L1095.84,562.91L1095.77,562.039L1095.69,561.166L1095.62,560.293L1095.56,559.419L1095.49,558.544L1095.43,557.669L1095.37,556.792L1095.31,555.915L1095.26,555.037L1095.21,554.158L1095.16,553.279L1095.12,552.398L1095.07,551.517L1095.03,550.635L1095,549.753L1094.96,548.869L1094.93,547.985L1094.9,547.1L1094.87,546.215L1094.85,545.328L1094.83,544.441L1094.81,543.553L1094.8,542.665L1094.78,541.775L1094.77,540.885L1094.77,539.994L1094.76,539.103L1094.76,538.211L1094.76,537.319L1094.77,536.428L1094.77,535.538L1094.78,534.649L1094.79,533.761L1094.81,532.875L1094.82,531.989L1094.84,531.105L1094.86,530.222L1094.88,529.34L1094.91,528.458L1094.94,527.578L1094.97,526.7L1095,525.822L1095.04,524.945L1095.07,524.07L1095.11,523.195L1095.15,522.322L1095.2,521.45L1095.25,520.579L1095.3,519.709L1095.35,518.84L1095.4,517.972L1095.46,517.106L1095.52,516.24L1095.58,515.376L1095.64,514.513L1095.71,513.651L1095.78,512.79L1095.85,511.931L1095.92,511.072L1096,510.215L1096.07,509.359L1096.15,508.504L1096.24,507.65L1096.32,506.797L1096.41,505.946L1096.5,505.095L1096.59,504.246L1096.68,503.398L1096.78,502.552L1096.88,501.706L1096.98,500.862L1097.08,500.018L1097.18,499.176L1097.29,498.335L1097.4,497.496L1097.52,496.657L1097.63,495.82L1097.75,494.984L1097.87,494.149L1097.99,493.316L1098.11,492.483L1098.24,491.652L1098.36,490.822L1098.49,489.993L1098.63,489.166L1098.76,488.339L1098.9,487.514L1099.04,486.691L1099.18,485.868L1099.32,485.047L1099.47,484.226L1099.62,483.408L1099.77,482.59L1099.92,481.773L1100.07,480.958L1100.23,480.144L1100.39,479.332L1100.55,478.52L1100.71,477.71L1100.88,476.901L1101.05,476.094L1101.22,475.287L1101.39,474.482L1101.57,473.679L1101.74,472.876L1101.92,472.075L1102.1,471.275L1102.29,470.476L1102.47,469.679L1102.66,468.883L1102.85,468.088L1103.04,467.294L1103.23,466.502L1103.43,465.711L1103.63,464.922L1103.83,464.133L1104.03,463.346L1104.23,462.56L1104.44,461.776L1104.65,460.993L1104.86,460.211L1105.07,459.431L1105.29,458.652L1105.51,457.874L1105.73,457.097L1105.95,456.322L1106.17,455.548L1106.39,454.776L1106.62,454.005L1106.85,453.235L1107.08,452.467L1107.32,451.699L1107.55,450.934L1107.79,450.169L1108.03,449.406L1108.27,448.644L1108.52,447.884L1108.76,447.125L1109.01,446.368L1109.26,445.611L1109.52,444.856L1109.77,444.103L1110.03,443.351L1110.28,442.6L1110.55,441.851L1110.81,441.103L1111.07,440.356L1111.34,439.611L1111.61,438.867L1111.88,438.124L1112.15,437.383L1112.42,436.644L1112.7,435.905L1112.98,435.169L1113.26,434.433L1113.54,433.699L1113.83,432.966L1114.11,432.235L1114.4,431.505L1114.69,430.777L1114.98,430.05L1115.28,429.324L1115.57,428.6L1115.87,427.878L1116.17,427.156L1116.47,426.437L1116.78,425.718L1117.08,425.001L1117.39,424.286L1117.7,423.572L1118.01,422.859L1118.33,422.148L1118.64,421.438L1118.96,420.73L1119.28,420.023L1119.6,419.318L1119.92,418.614L1120.25,417.911L1120.58,417.21L1120.9,416.511L1121.24,415.813L1121.57,415.116L1121.9,414.421L1122.24,413.728L1122.58,413.036L1122.92,412.345L1123.26,411.656L1123.6,410.968L1123.95,410.282L1124.3,409.598L1124.65,408.914L1125,408.233L1125.35,407.553L1125.71,406.874L1126.06,406.197L1126.42,405.521L1126.78,404.847L1127.15,404.175L1127.51,403.504L1127.88,402.834L1128.24,402.166L1128.61,401.5L1128.99,400.835L1129.36,400.171L1129.73,399.509L1130.11,398.849L1130.49,398.19L1130.87,397.533L1131.25,396.877L1131.64,396.223L1132.02,395.57L1132.41,394.919L1132.8,394.27L1133.19,393.622L1133.58,392.976L1133.98,392.331L1134.37,391.687L1134.77,391.046L1135.17,390.406L1135.57,389.767L1135.98,389.13L1136.38,388.495L1136.79,387.861L1137.2,387.229L1137.61,386.598L1138.02,385.969L1138.43,385.342L1138.85,384.716L1139.27,384.091L1139.69,383.469L1140.11,382.848L1140.53,382.228L1140.95,381.61L1141.38,380.994L1141.81,380.38L1142.24,379.767L1142.67,379.155L1143.1,378.545L1143.53,377.937L1143.97,377.331L1144.41,376.726L1144.85,376.123L1145.29,375.521L1145.73,374.921L1146.17,374.323L1146.62,373.726L1147.07,373.131L1147.52,372.538L1147.97,371.946L1148.42,371.356L1148.87,370.767L1149.33,370.18L1149.79,369.595L1150.25,369.012L1150.71,368.43L1151.17,367.85L1151.63,367.271L1152.1,366.695L1152.57,366.12L1153.03,365.546L1153.5,364.974L1153.98,364.404L1154.45,363.836L1154.92,363.269L1155.4,362.704L1155.88,362.141L1156.36,361.579L1156.84,361.019L1157.32,360.461L1157.81,359.905L1158.29,359.35L1158.78,358.797L1159.27,358.245L1159.76,357.696L1160.25,357.148L1160.75,356.601L1161.24,356.057L1161.74,355.514L1162.24,354.973L1162.74,354.434L1163.24,353.896L1163.74,353.36L1164.25,352.826L1164.75,352.294L1165.26,351.763L1165.77,351.234L1166.28,350.707L1166.79,350.182L1167.3,349.658L1167.82,349.136L1168.34,348.616L1168.85,348.098L1169.37,347.581L1169.89,347.066L1170.41,346.553L1170.94,346.042L1171.46,345.532L1171.99,345.025L1172.52,344.519L1173.05,344.014L1173.58,343.512L1174.11,343.011L1174.65,342.513L1175.18,342.016L1175.72,341.52L1176.26,341.027L1176.8,340.535L1177.34,340.045L1177.88,339.557L1178.42,339.071L1178.97,338.587L1179.52,338.104L1180.07,337.623L1180.62,337.144L1181.17,336.667L1181.72,336.192L1182.27,335.719L1182.83,335.247L1183.38,334.777L1183.94,334.309L1184.5,333.843L1185.06,333.379L1185.62,332.916L1186.19,332.455L1186.75,331.997L1187.32,331.54L1187.89,331.085L1188.45,330.631L1189.03,330.18L1189.6,329.731L1190.17,329.283L1190.75,328.837L1191.32,328.393L1191.9,327.951L1192.48,327.511L1193.06,327.073L1193.64,326.636L1194.22,326.202L1194.8,325.769L1195.39,325.338L1195.97,324.91L1196.56,324.483L1197.15,324.058L1197.74,323.634L1198.33,323.213L1198.92,322.794L1199.52,322.376L1200.11,321.961L1200.71,321.547L1201.31,321.135L1201.9,320.725L1202.51,320.317L1203.11,319.911L1203.71,319.507L1204.31,319.105L1204.92,318.705L1205.53,318.307L1206.13,317.91L1206.74,317.516L1207.35,317.123L1207.96,316.733L1208.58,316.344L1209.19,315.958L1209.81,315.573L1210.42,315.19L1211.04,314.809L1211.66,314.431L1212.28,314.054L1212.9,313.679L1213.52,313.306L1214.14,312.935L1214.77,312.566L1215.4,312.199L1216.02,311.834L1216.65,311.471L1217.28,311.109L1217.91,310.75L1218.54,310.393L1219.18,310.038L1219.81,309.685L1220.44,309.334L1221.08,308.985L1221.72,308.637L1222.36,308.292L1223,307.949L1223.64,307.608L1224.28,307.269L1224.92,306.931L1225.57,306.596L1226.21,306.263L1226.86,305.932L1227.51,305.603L1228.16,305.276L1228.81,304.951L1229.46,304.628L1230.11,304.307L1230.76,303.988L1231.42,303.671L1232.07,303.356L1232.73,303.043L1233.39,302.733L1234.05,302.424L1234.71,302.117L1235.37,301.813L1236.03,301.51L1236.69,301.21L1237.36,300.911L1238.02,300.615L1238.69,300.32L1239.36,300.028L1240.02,299.738L1240.69,299.45L1241.36,299.164L1242.04,298.88L1242.71,298.598L1243.38,298.318L1244.06,298.041L1244.73,297.765L1245.41,297.491L1246.09,297.22L1246.76,296.951L1247.44,296.684L1248.12,296.418L1248.81,296.155L1249.49,295.894L1250.17,295.636L1250.86,295.379L1251.54,295.124L1252.23,294.872L1252.92,294.622L1253.6,294.373L1254.29,294.127L1254.98,293.883L1255.68,293.642L1256.37,293.402L1257.06,293.164L1257.76,292.929L1258.45,292.696L1259.15,292.464L1259.84,292.235L1260.54,292.009L1261.24,291.784L1261.94,291.561L1262.64,291.341L1263.34,291.123L1264.05,290.907L1264.75,290.693L1265.45,290.481L1266.16,290.272L1266.87,290.064L1267.57,289.859L1268.28,289.656L1268.99,289.455L1269.7,289.256L1270.41,289.06L1271.12,288.866L1271.83,288.674L1272.55,288.484L1273.26,288.296L1273.98,288.11L1274.69,287.927L1275.41,287.746L1276.13,287.567L1276.85,287.39L1277.57,287.216L1278.29,287.044L1279.01,286.874L1279.73,286.706L1280.45,286.54L1281.17,286.377L1281.9,286.216L1282.62,286.057L1283.35,285.9L1284.08,285.746L1284.81,285.593L1285.53,285.443L1286.26,285.296L1286.99,285.15L1287.72,285.007L1288.46,284.866L1289.19,284.727L1289.92,284.591L1290.66,284.457L1291.39,284.325L1292.13,284.195L1292.86,284.067L1293.6,283.942L1294.34,283.819L1295.08,283.699L1295.82,283.58L1296.56,283.464L1297.3,283.351L1298.04,283.239L1298.78,283.13L1299.52,283.023L1300.27,282.918L1301.01,282.816L1301.76,282.716L1302.5,282.618L1303.25,282.523L1304,282.43L1304.75,282.339L1305.5,282.25L1306.25,282.164L1307,282.08L1307.75,281.999L1308.5,281.919L1309.25,281.842L1310,281.768L1310.76,281.695L1311.51,281.626L1312.27,281.558L1313.02,281.493L1313.78,281.43L1314.54,281.369L1315.3,281.311L1316.05,281.255L1316.81,281.201L1317.57,281.15L1318.33,281.101L1319.09,281.055L1319.86,281.011L1320.62,280.969L1321.38,280.93L1322.14,280.893L1322.91,280.858L1323.67,280.826L1324.44,280.796L1325.2,280.768L1325.97,280.743L1326.74,280.72L1327.51,280.7L1328.28,280.682L1329.05,280.666L1329.81,280.653L1330.59,280.642L1331.36,280.634L1332.13,280.628L1332.9,280.624L1333.67,280.623L1334.44,280.624L1335.22,280.628L1335.99,280.635L1336.76,280.644L1337.53,280.655L1338.3,280.669L1339.07,280.686L1339.84,280.705L1340.61,280.727L1341.38,280.751L1342.14,280.778L1342.91,280.807L1343.68,280.839L1344.44,280.874L1345.21,280.911L1345.98,280.95L1346.74,280.992L1347.5,281.037L1348.27,281.084L1349.03,281.133L1349.79,281.185L1350.56,281.24L1351.32,281.297L1352.08,281.357L1352.84,281.419L1353.6,281.483L1354.36,281.55L1355.12,281.62L1355.87,281.692L1356.63,281.766L1357.39,281.843L1358.14,281.923L1358.9,282.005L1359.66,282.089L1360.41,282.176L1361.16,282.265L1361.92,282.357L1362.67,282.451L1363.42,282.548L1364.17,282.647L1364.92,282.748L1365.67,282.852L1366.42,282.959L1367.17,283.068L1367.92,283.179L1368.67,283.293L1369.42,283.409L1370.16,283.527L1370.91,283.648L1371.65,283.772L1372.4,283.898L1373.14,284.026L1373.89,284.156L1374.63,284.289L1375.37,284.425L1376.11,284.563L1376.85,284.703L1377.59,284.845L1378.33,284.99L1379.07,285.138L1379.81,285.287L1380.55,285.439L1381.28,285.594L1382.02,285.751L1382.75,285.91L1383.49,286.072L1384.22,286.235L1384.95,286.402L1385.68,286.57L1386.42,286.741L1387.15,286.915L1387.88,287.09L1388.61,287.268L1389.34,287.449L1390.06,287.631L1390.79,287.816L1391.52,288.004L1392.24,288.193L1392.97,288.385L1393.69,288.58L1394.41,288.776L1395.14,288.975L1395.86,289.176L1396.58,289.38L1397.3,289.586L1398.02,289.794L1398.74,290.004L1399.45,290.217L1400.17,290.432L1400.89,290.649L1401.6,290.869L1402.32,291.091L1403.03,291.315L1403.74,291.541L1404.46,291.77L1405.17,292.001L1405.88,292.234L1406.59,292.469L1407.3,292.707L1408,292.947L1408.71,293.189L1409.42,293.434L1410.12,293.68L1410.83,293.929L1411.53,294.18L1412.23,294.434L1412.93,294.689L1413.64,294.947L1414.34,295.207L1415.04,295.469L1415.74,295.734ZM1400.82,328.973L1400.23,328.756L1399.65,328.541L1399.06,328.327L1398.47,328.115L1397.88,327.905L1397.3,327.697L1396.7,327.491L1396.12,327.287L1395.53,327.085L1394.93,326.884L1394.34,326.686L1393.75,326.489L1393.16,326.295L1392.56,326.102L1391.97,325.911L1391.37,325.722L1390.78,325.535L1390.18,325.35L1389.59,325.167L1388.99,324.986L1388.39,324.807L1387.79,324.629L1387.19,324.454L1386.59,324.28L1385.99,324.109L1385.39,323.939L1384.79,323.772L1384.19,323.606L1383.59,323.442L1382.98,323.28L1382.38,323.12L1381.78,322.962L1381.17,322.806L1380.57,322.652L1379.96,322.5L1379.35,322.35L1378.75,322.202L1378.14,322.056L1377.53,321.911L1376.92,321.769L1376.31,321.629L1375.7,321.49L1375.09,321.354L1374.48,321.22L1373.87,321.087L1373.26,320.957L1372.65,320.828L1372.03,320.702L1371.42,320.577L1370.81,320.455L1370.19,320.334L1369.58,320.216L1368.96,320.099L1368.34,319.985L1367.73,319.872L1367.11,319.761L1366.49,319.653L1365.87,319.546L1365.25,319.442L1364.63,319.339L1364.01,319.238L1363.39,319.14L1362.77,319.043L1362.15,318.949L1361.53,318.856L1360.91,318.766L1360.28,318.678L1359.66,318.591L1359.04,318.507L1358.41,318.424L1357.79,318.344L1357.16,318.266L1356.54,318.189L1355.91,318.115L1355.28,318.043L1354.65,317.973L1354.03,317.905L1353.4,317.839L1352.77,317.775L1352.14,317.713L1351.51,317.653L1350.88,317.595L1350.25,317.54L1349.62,317.486L1348.98,317.434L1348.35,317.385L1347.72,317.337L1347.08,317.292L1346.45,317.249L1345.82,317.208L1345.18,317.168L1344.55,317.131L1343.91,317.097L1343.27,317.064L1342.64,317.033L1342,317.004L1341.36,316.978L1340.72,316.953L1340.08,316.931L1339.45,316.911L1338.81,316.893L1338.17,316.877L1337.53,316.863L1336.88,316.851L1336.24,316.841L1335.6,316.834L1334.96,316.829L1334.32,316.825L1333.67,316.824L1333.02,316.825L1332.37,316.828L1331.72,316.833L1331.07,316.841L1330.42,316.85L1329.77,316.861L1329.12,316.874L1328.48,316.889L1327.83,316.906L1327.18,316.925L1326.54,316.947L1325.9,316.97L1325.25,316.995L1324.61,317.022L1323.96,317.051L1323.32,317.082L1322.68,317.115L1322.04,317.151L1321.4,317.188L1320.76,317.227L1320.12,317.268L1319.48,317.311L1318.85,317.356L1318.21,317.403L1317.57,317.451L1316.94,317.502L1316.3,317.555L1315.67,317.61L1315.03,317.667L1314.4,317.725L1313.77,317.786L1313.14,317.849L1312.51,317.913L1311.88,317.979L1311.25,318.048L1310.62,318.118L1309.99,318.19L1309.36,318.265L1308.74,318.341L1308.11,318.419L1307.49,318.498L1306.86,318.58L1306.24,318.664L1305.62,318.75L1304.99,318.837L1304.37,318.927L1303.75,319.018L1303.13,319.111L1302.51,319.207L1301.89,319.304L1301.27,319.403L1300.65,319.504L1300.03,319.606L1299.42,319.711L1298.8,319.818L1298.19,319.926L1297.57,320.036L1296.96,320.149L1296.35,320.262L1295.74,320.379L1295.12,320.496L1294.52,320.616L1293.9,320.738L1293.29,320.861L1292.69,320.986L1292.08,321.113L1291.47,321.242L1290.87,321.373L1290.26,321.506L1289.65,321.64L1289.05,321.777L1288.45,321.915L1287.84,322.055L1287.24,322.197L1286.64,322.341L1286.04,322.486L1285.44,322.633L1284.84,322.783L1284.24,322.934L1283.65,323.087L1283.05,323.241L1282.46,323.398L1281.86,323.557L1281.27,323.717L1280.67,323.879L1280.08,324.043L1279.49,324.208L1278.9,324.376L1278.31,324.545L1277.72,324.716L1277.13,324.889L1276.54,325.064L1275.95,325.241L1275.37,325.419L1274.78,325.599L1274.2,325.781L1273.61,325.964L1273.03,326.15L1272.45,326.337L1271.86,326.526L1271.28,326.717L1270.7,326.909L1270.12,327.104L1269.54,327.301L1268.97,327.498L1268.39,327.698L1267.82,327.899L1267.24,328.103L1266.66,328.308L1266.09,328.515L1265.52,328.724L1264.95,328.934L1264.38,329.146L1263.81,329.359L1263.23,329.575L1262.66,329.793L1262.1,330.011L1261.53,330.232L1260.96,330.455L1260.4,330.68L1259.83,330.906L1259.27,331.134L1258.71,331.363L1258.15,331.595L1257.59,331.828L1257.03,332.063L1256.46,332.299L1255.91,332.538L1255.35,332.778L1254.79,333.02L1254.24,333.264L1253.68,333.509L1253.13,333.756L1252.57,334.004L1252.02,334.255L1251.47,334.508L1250.92,334.761L1250.37,335.017L1249.82,335.273L1249.27,335.533L1248.72,335.794L1248.18,336.056L1247.63,336.32L1247.09,336.586L1246.54,336.854L1246,337.124L1245.46,337.394L1244.92,337.667L1244.38,337.942L1243.84,338.217L1243.3,338.495L1242.76,338.776L1242.23,339.056L1241.69,339.339L1241.15,339.624L1240.62,339.91L1240.09,340.198L1239.56,340.487L1239.02,340.779L1238.49,341.072L1237.96,341.366L1237.44,341.663L1236.91,341.962L1236.38,342.261L1235.86,342.562L1235.34,342.864L1234.81,343.17L1234.29,343.477L1233.77,343.785L1233.25,344.094L1232.73,344.406L1232.21,344.719L1231.69,345.033L1231.17,345.349L1230.65,345.669L1230.14,345.989L1229.63,346.309L1229.12,346.632L1228.6,346.957L1228.09,347.283L1227.58,347.612L1227.07,347.94L1226.57,348.272L1226.06,348.606L1225.55,348.941L1225.05,349.277L1224.54,349.614L1224.04,349.953L1223.54,350.294L1223.04,350.637L1222.54,350.983L1222.04,351.328L1221.54,351.676L1221.04,352.025L1220.55,352.376L1220.05,352.729L1219.56,353.083L1219.07,353.438L1218.57,353.796L1218.08,354.155L1217.59,354.516L1217.1,354.878L1216.62,355.242L1216.13,355.608L1215.65,355.974L1215.16,356.344L1214.67,356.715L1214.19,357.087L1213.71,357.459L1213.23,357.835L1212.75,358.212L1212.28,358.59L1211.8,358.971L1211.32,359.352L1210.85,359.735L1210.37,360.12L1209.9,360.506L1209.43,360.895L1208.96,361.284L1208.49,361.675L1208.02,362.069L1207.55,362.463L1207.09,362.859L1206.62,363.256L1206.16,363.655L1205.69,364.056L1205.23,364.459L1204.77,364.863L1204.31,365.269L1203.86,365.675L1203.4,366.083L1202.94,366.494L1202.49,366.906L1202.03,367.32L1201.58,367.734L1201.13,368.151L1200.68,368.569L1200.23,368.989L1199.78,369.41L1199.33,369.833L1198.89,370.257L1198.44,370.683L1198,371.111L1197.56,371.539L1197.12,371.971L1196.68,372.402L1196.24,372.836L1195.8,373.272L1195.36,373.708L1194.93,374.146L1194.49,374.587L1194.06,375.028L1193.63,375.471L1193.2,375.916L1192.77,376.362L1192.34,376.81L1191.91,377.259L1191.49,377.709L1191.06,378.162L1190.64,378.616L1190.22,379.071L1189.8,379.528L1189.38,379.986L1188.96,380.446L1188.54,380.908L1188.13,381.371L1187.71,381.835L1187.3,382.301L1186.89,382.769L1186.48,383.239L1186.07,383.709L1185.66,384.181L1185.25,384.655L1184.84,385.13L1184.44,385.606L1184.04,386.085L1183.63,386.565L1183.23,387.046L1182.83,387.528L1182.43,388.013L1182.04,388.5L1181.64,388.985L1181.25,389.475L1180.86,389.966L1180.46,390.456L1180.07,390.95L1179.68,391.446L1179.3,391.942L1178.91,392.439L1178.52,392.938L1178.14,393.44L1177.76,393.941L1177.38,394.445L1177,394.951L1176.62,395.458L1176.24,395.966L1175.86,396.475L1175.49,396.986L1175.12,397.499L1174.74,398.013L1174.37,398.529L1174,399.046L1173.64,399.565L1173.27,400.086L1172.9,400.607L1172.54,401.129L1172.18,401.655L1171.82,402.18L1171.46,402.707L1171.1,403.236L1170.74,403.767L1170.39,404.3L1170.03,404.833L1169.68,405.367L1169.33,405.903L1168.98,406.442L1168.63,406.98L1168.28,407.52L1167.94,408.063L1167.59,408.607L1167.25,409.152L1166.91,409.698L1166.57,410.246L1166.23,410.795L1165.89,411.346L1165.56,411.897L1165.22,412.451L1164.89,413.008L1164.56,413.564L1164.23,414.121L1163.9,414.681L1163.57,415.242L1163.25,415.804L1162.92,416.368L1162.6,416.933L1162.28,417.499L1161.96,418.068L1161.64,418.638L1161.33,419.208L1161.01,419.78L1160.7,420.354L1160.38,420.93L1160.07,421.506L1159.77,422.084L1159.46,422.663L1159.15,423.245L1158.85,423.827L1158.54,424.41L1158.24,424.995L1157.94,425.581L1157.64,426.17L1157.35,426.76L1157.05,427.35L1156.76,427.943L1156.46,428.535L1156.17,429.13L1155.88,429.727L1155.6,430.326L1155.31,430.925L1155.03,431.524L1154.74,432.126L1154.46,432.731L1154.18,433.334L1153.9,433.941L1153.63,434.549L1153.35,435.157L1153.08,435.768L1152.81,436.38L1152.54,436.993L1152.27,437.607L1152,438.222L1151.73,438.84L1151.47,439.459L1151.21,440.078L1150.95,440.7L1150.69,441.324L1150.43,441.947L1150.17,442.572L1149.92,443.199L1149.67,443.828L1149.42,444.457L1149.17,445.088L1148.92,445.72L1148.67,446.355L1148.43,446.99L1148.19,447.625L1147.94,448.264L1147.7,448.903L1147.47,449.543L1147.23,450.185L1147,450.829L1146.77,451.473L1146.53,452.118L1146.31,452.765L1146.08,453.415L1145.85,454.066L1145.63,454.716L1145.4,455.368L1145.18,456.024L1144.96,456.678L1144.75,457.335L1144.53,457.993L1144.32,458.652L1144.11,459.313L1143.89,459.975L1143.69,460.638L1143.48,461.303L1143.27,461.97L1143.07,462.637L1142.87,463.305L1142.67,463.975L1142.47,464.646L1142.28,465.319L1142.08,465.994L1141.89,466.668L1141.7,467.345L1141.51,468.024L1141.32,468.702L1141.13,469.383L1140.95,470.064L1140.77,470.749L1140.59,471.433L1140.41,472.117L1140.23,472.806L1140.06,473.495L1139.88,474.183L1139.71,474.875L1139.54,475.567L1139.38,476.261L1139.21,476.956L1139.05,477.652L1138.88,478.349L1138.73,479.048L1138.57,479.748L1138.41,480.449L1138.26,481.153L1138.1,481.857L1137.95,482.562L1137.8,483.267L1137.65,483.976L1137.51,484.685L1137.37,485.396L1137.23,486.108L1137.09,486.82L1136.95,487.534L1136.81,488.249L1136.68,488.967L1136.55,489.685L1136.42,490.404L1136.29,491.124L1136.16,491.847L1136.04,492.569L1135.91,493.294L1135.79,494.02L1135.67,494.747L1135.56,495.474L1135.44,496.204L1135.33,496.935L1135.22,497.667L1135.11,498.4L1135.01,499.134L1134.9,499.87L1134.8,500.606L1134.7,501.345L1134.6,502.085L1134.5,502.825L1134.4,503.567L1134.31,504.31L1134.22,505.054L1134.13,505.801L1134.05,506.547L1133.96,507.295L1133.88,508.045L1133.8,508.794L1133.72,509.546L1133.64,510.3L1133.57,511.054L1133.49,511.81L1133.42,512.565L1133.35,513.324L1133.29,514.083L1133.22,514.842L1133.16,515.605L1133.1,516.368L1133.04,517.131L1132.98,517.897L1132.93,518.664L1132.88,519.43L1132.83,520.199L1132.78,520.97L1132.73,521.74L1132.69,522.512L1132.65,523.287L1132.61,524.061L1132.57,524.837L1132.54,525.615L1132.5,526.393L1132.47,527.172L1132.44,527.954L1132.41,528.736L1132.39,529.518L1132.37,530.302L1132.35,531.088L1132.33,531.875L1132.31,532.663L1132.3,533.452L1132.29,534.242L1132.28,535.034L1132.27,535.826L1132.26,536.62L1132.26,537.414L1132.26,538.207L1132.26,538.993L1132.26,539.775L1132.27,540.557L1132.28,541.336L1132.29,542.117L1132.3,542.897L1132.32,543.675L1132.34,544.453L1132.36,545.23L1132.38,546.007L1132.41,546.782L1132.43,547.556L1132.46,548.33L1132.5,549.105L1132.53,549.878L1132.57,550.649L1132.61,551.42L1132.65,552.191L1132.7,552.961L1132.74,553.731L1132.79,554.499L1132.84,555.267L1132.9,556.034L1132.95,556.799L1133.01,557.566L1133.07,558.33L1133.14,559.095L1133.2,559.858L1133.27,560.62L1133.34,561.381L1133.41,562.142L1133.49,562.904L1133.57,563.664L1133.65,564.421L1133.73,565.178L1133.81,565.936L1133.9,566.692L1133.99,567.447L1134.08,568.204L1134.17,568.958L1134.27,569.71L1134.37,570.463L1134.46,571.215L1134.57,571.964L1134.67,572.715L1134.78,573.464L1134.89,574.213L1135,574.963L1135.11,575.709L1135.23,576.452L1135.35,577.199L1135.47,577.942L1135.59,578.687L1135.71,579.431L1135.84,580.171L1135.97,580.912L1136.1,581.653L1136.24,582.394L1136.37,583.132L1136.51,583.868L1136.65,584.606L1136.79,585.342L1136.93,586.077L1137.08,586.812L1137.23,587.545L1137.38,588.279L1137.53,589.009L1137.69,589.739L1137.85,590.47L1138.01,591.201L1138.17,591.929L1138.33,592.655L1138.5,593.382L1138.66,594.106L1138.84,594.832L1139.01,595.556L1139.18,596.279L1139.36,597.003L1139.54,597.724L1139.72,598.443L1139.9,599.162L1140.09,599.881L1140.27,600.599L1140.46,601.315L1140.65,602.031L1140.84,602.745L1141.04,603.459L1141.24,604.174L1141.44,604.886L1141.64,605.596L1141.84,606.307L1142.05,607.015L1142.25,607.722L1142.46,608.43L1142.67,609.138L1142.89,609.843L1143.1,610.547L1143.32,611.25L1143.54,611.954L1143.76,612.657L1143.99,613.356L1144.21,614.054L1144.44,614.753L1144.67,615.452L1144.9,616.149L1145.13,616.844L1145.37,617.539L1145.61,618.232L1145.85,618.924L1146.09,619.617L1146.33,620.308L1146.58,620.997L1146.83,621.686L1147.07,622.374L1147.33,623.059L1147.58,623.745L1147.83,624.431L1148.09,625.114L1148.35,625.796L1148.61,626.478L1148.87,627.16L1149.14,627.838L1149.4,628.517L1149.67,629.195L1149.94,629.869L1150.22,630.545L1150.49,631.219L1150.77,631.893L1151.05,632.566L1151.32,633.235L1151.61,633.904L1151.89,634.574L1152.17,635.242L1152.46,635.909L1152.75,636.574L1153.04,637.238L1153.34,637.904L1153.63,638.565L1153.93,639.225L1154.23,639.885L1154.53,640.544L1154.83,641.202L1155.13,641.858L1155.44,642.515L1155.75,643.17L1156.05,643.821L1156.37,644.474L1156.68,645.127L1156.99,645.774L1157.31,646.423L1157.63,647.071L1157.95,647.717L1158.27,648.364L1158.59,649.008L1158.92,649.65L1159.24,650.292L1159.57,650.932L1159.9,651.573L1160.24,652.21L1160.57,652.847L1160.91,653.483L1161.24,654.118L1161.58,654.75L1161.92,655.383L1162.27,656.015L1162.61,656.645L1162.96,657.273L1163.31,657.901L1163.65,658.527L1164.01,659.151L1164.36,659.776L1164.71,660.399L1165.07,661.02L1165.43,661.64L1165.79,662.26L1166.15,662.876L1166.51,663.491L1166.88,664.109L1167.24,664.722L1167.61,665.335L1167.98,665.946L1168.35,666.555L1168.72,667.163L1169.1,667.772L1169.47,668.379L1169.85,668.983L1170.23,669.587L1170.61,670.189L1170.99,670.79L1171.38,671.39L1171.76,671.989L1172.15,672.586L1172.54,673.182L1172.93,673.777L1173.32,674.368L1173.72,674.961L1174.11,675.552L1174.51,676.141L1174.91,676.73L1175.31,677.315L1175.71,677.9L1176.11,678.485L1176.52,679.068L1176.92,679.648L1177.33,680.228L1177.74,680.807L1178.15,681.384L1178.56,681.96L1178.97,682.533L1179.39,683.107L1179.8,683.678L1180.22,684.248L1180.64,684.818L1181.06,685.385L1181.49,685.952L1181.91,686.516L1182.33,687.078L1182.76,687.64L1183.19,688.201L1183.62,688.761L1184.05,689.318L1184.48,689.874L1184.92,690.429L1185.35,690.981L1185.79,691.533L1186.23,692.085L1186.67,692.634L1187.11,693.181L1187.55,693.727L1188,694.272L1188.44,694.815L1188.89,695.356L1189.34,695.896L1189.79,696.436L1190.24,696.973L1190.69,697.509L1191.14,698.043L1191.6,698.577L1192.05,699.107L1192.51,699.636L1192.97,700.166L1193.43,700.693L1193.89,701.218L1194.36,701.742L1194.82,702.264L1195.29,702.785L1195.75,703.304L1196.22,703.822L1196.69,704.339L1197.16,704.852L1197.63,705.366L1198.11,705.879L1198.58,706.389L1199.06,706.897L1199.54,707.403L1200.01,707.909L1200.49,708.413L1200.98,708.916L1201.46,709.417L1201.94,709.916L1202.43,710.414L1202.91,710.91L1203.4,711.404L1203.89,711.897L1204.38,712.388L1204.87,712.879L1205.36,713.367L1205.85,713.853L1206.35,714.338L1206.84,714.821L1207.34,715.303L1207.84,715.783L1208.34,716.262L1208.84,716.738L1209.34,717.213L1209.85,717.688L1210.35,718.16L1210.85,718.629L1211.36,719.099L1211.87,719.565L1212.38,720.032L1212.88,720.495L1213.39,720.956L1213.91,721.418L1214.42,721.876L1214.93,722.333L1215.45,722.79L1215.97,723.242L1216.48,723.695L1217,724.146L1217.52,724.595L1218.04,725.041L1218.56,725.486L1219.09,725.931L1219.61,726.372L1220.13,726.812L1220.66,727.251L1221.19,727.688L1221.72,728.124L1222.25,728.557L1222.78,728.989L1223.31,729.418L1223.84,729.847L1224.37,730.273L1224.9,730.698L1225.44,731.122L1225.98,731.543L1226.51,731.963L1227.05,732.381L1227.59,732.797L1228.13,733.211L1228.67,733.624L1229.21,734.035L1229.76,734.443L1230.3,734.851L1230.85,735.257L1231.39,735.661L1231.94,736.063L1232.49,736.463L1233.03,736.861L1233.58,737.258L1234.13,737.653L1234.68,738.046L1235.24,738.437L1235.79,738.826L1236.34,739.214L1236.9,739.601L1237.45,739.984L1238.01,740.367L1238.57,740.748L1239.13,741.126L1239.68,741.502L1240.25,741.878L1240.81,742.251L1241.37,742.622L1241.93,742.991L1242.49,743.359L1243.06,743.725L1243.62,744.089L1244.19,744.452L1244.76,744.811L1245.32,745.169L1245.89,745.527L1246.46,745.881L1247.03,746.234L1247.6,746.586L1248.17,746.934L1248.74,747.282L1249.32,747.627L1249.89,747.97L1250.47,748.313L1251.04,748.653L1251.62,748.99L1252.19,749.326L1252.77,749.659L1253.35,749.992L1253.93,750.322L1254.51,750.65L1255.09,750.977L1255.67,751.302L1256.25,751.625L1256.83,751.945L1257.41,752.264L1258,752.582L1258.58,752.896L1259.17,753.209L1259.75,753.52L1260.34,753.829L1260.93,754.137L1261.51,754.442L1262.1,754.745L1262.69,755.047L1263.28,755.347L1263.87,755.644L1264.46,755.94L1265.05,756.234L1265.64,756.525L1266.24,756.814L1266.83,757.103L1267.43,757.389L1268.02,757.673L1268.62,757.954L1269.21,758.235L1269.81,758.512L1270.4,758.788L1271,759.063L1271.6,759.334L1272.2,759.605L1272.8,759.873L1273.4,760.139L1274,760.403L1274.6,760.665L1275.2,760.925L1275.8,761.183L1276.4,761.439L1277.01,761.694L1277.61,761.946L1278.21,762.195L1278.82,762.444L1279.42,762.69L1280.03,762.934L1280.63,763.176L1281.24,763.416L1281.85,763.654L1282.45,763.89L1283.06,764.124L1283.67,764.356L1284.28,764.586L1284.89,764.814L1285.5,765.04L1286.11,765.264L1286.72,765.485L1287.33,765.705L1287.94,765.923L1288.55,766.138L1289.16,766.352L1289.77,766.563L1290.39,766.772L1291,766.98L1291.62,767.185L1292.23,767.389L1292.85,767.59L1293.46,767.789L1294.08,767.986L1294.69,768.181L1295.31,768.374L1295.92,768.565L1296.54,768.754L1297.16,768.941L1297.77,769.125L1298.39,769.307L1299.01,769.488L1299.63,769.667L1300.25,769.843L1300.87,770.017L1301.49,770.189L1302.11,770.359L1302.73,770.527L1303.35,770.693L1303.97,770.856L1304.59,771.019L1305.21,771.178L1305.83,771.335L1306.46,771.491L1307.08,771.644L1307.7,771.795L1308.32,771.943L1308.95,772.091L1309.57,772.235L1310.19,772.378L1310.82,772.518L1311.44,772.656L1312.07,772.793L1312.69,772.927L1313.32,773.059L1313.94,773.189L1314.57,773.316L1315.2,773.442L1315.82,773.566L1316.45,773.687L1317.07,773.805L1317.7,773.923L1318.33,774.037L1318.95,774.15L1319.58,774.261L1320.21,774.369L1320.84,774.475L1321.47,774.579L1322.09,774.681L1322.72,774.781L1323.35,774.878L1323.98,774.974L1324.61,775.067L1325.24,775.158L1325.87,775.247L1326.5,775.334L1327.13,775.418L1327.76,775.5L1328.39,775.58L1329.02,775.659L1329.65,775.734L1330.28,775.808L1330.91,775.879L1331.54,775.948L1332.17,776.015L1332.81,776.08L1333.44,776.143L1334.07,776.203L1334.7,776.262L1335.33,776.318L1335.96,776.371L1336.6,776.423L1337.23,776.472L1337.86,776.519L1338.49,776.564L1339.13,776.607L1339.76,776.648L1340.39,776.686L1341.03,776.722L1341.66,776.756L1342.29,776.787L1342.93,776.817L1343.56,776.844L1344.19,776.869L1344.83,776.892L1345.46,776.912L1346.09,776.93L1346.73,776.946L1347.36,776.96L1348,776.971L1348.63,776.98L1349.27,776.987L1349.94,776.992L1350.62,776.995L1351.29,776.996L1351.96,776.994L1352.64,776.99L1353.31,776.984L1353.98,776.976L1354.65,776.965L1355.33,776.952L1355.99,776.937L1356.66,776.92L1357.33,776.901L1358,776.879L1358.66,776.856L1359.33,776.83L1359.99,776.802L1360.66,776.771L1361.32,776.739L1361.98,776.704L1362.64,776.667L1363.3,776.629L1363.96,776.587L1364.62,776.544L1365.28,776.499L1365.93,776.451L1366.59,776.401L1367.25,776.35L1367.9,776.296L1368.56,776.239L1369.21,776.181L1369.86,776.121L1370.51,776.058L1371.16,775.994L1371.81,775.927L1372.46,775.858L1373.11,775.787L1373.76,775.714L1374.4,775.639L1375.05,775.562L1375.69,775.482L1376.34,775.401L1376.98,775.317L1377.62,775.232L1378.26,775.144L1378.9,775.054L1379.54,774.963L1380.18,774.869L1380.82,774.773L1381.46,774.675L1382.09,774.575L1382.73,774.472L1383.37,774.368L1384,774.262L1384.63,774.154L1385.26,774.043L1385.89,773.931L1386.53,773.816L1387.15,773.7L1387.78,773.581L1388.41,773.461L1389.04,773.338L1389.66,773.214L1390.29,773.087L1390.91,772.958L1391.54,772.828L1392.16,772.695L1392.78,772.561L1393.4,772.424L1394.02,772.286L1394.64,772.145L1395.26,772.002L1395.88,771.857L1396.5,771.71L1397.11,771.562L1397.72,771.412L1398.34,771.259L1398.95,771.104L1399.56,770.948L1400.17,770.789L1400.79,770.628L1401.4,770.466L1402,770.302L1402.61,770.136L1403.22,769.967L1403.83,769.796L1404.43,769.625L1405.03,769.451L1405.64,769.274L1406.24,769.096L1406.84,768.916L1407.44,768.734L1408.04,768.55L1408.64,768.364L1409.24,768.176L1409.84,767.986L1410.43,767.795L1411.03,767.601L1411.62,767.405L1412.21,767.208L1412.81,767.009L1413.4,766.808L1413.99,766.604L1414.58,766.399L1415.17,766.192L1415.76,765.983L1416.34,765.773L1416.93,765.56L1417.51,765.345L1418.1,765.129L1418.68,764.91L1419.26,764.69L1419.85,764.467L1420.43,764.243L1421.01,764.018L1421.58,763.79L1422.16,763.56L1422.74,763.328L1423.32,763.095L1423.89,762.859L1424.46,762.623L1425.04,762.383L1425.61,762.141L1426.18,761.899L1426.75,761.655L1427.32,761.408L1427.89,761.159L1428.45,760.91L1429.02,760.657L1429.59,760.403L1430.15,760.147L1430.71,759.889L1431.28,759.63L1431.84,759.369L1432.4,759.105L1432.96,758.84L1433.52,758.573L1434.07,758.305L1434.63,758.035L1435.18,757.762L1435.74,757.487L1436.3,757.211L1436.85,756.934L1437.4,756.653L1437.95,756.372L1438.5,756.089L1439.05,755.804L1439.6,755.517L1440.14,755.228L1440.69,754.938L1441.23,754.645L1441.78,754.351L1442.32,754.055L1442.86,753.758L1443.4,753.458L1443.94,753.156L1444.48,752.853L1445.02,752.548L1445.56,752.241L1446.09,751.934L1446.62,751.622L1447.16,751.31L1447.69,750.997L1448.22,750.68L1448.76,750.362L1449.28,750.044L1449.81,749.723L1450.34,749.401L1450.86,749.076L1451.39,748.749L1451.91,748.421L1452.44,748.092L1452.96,747.759L1453.48,747.426L1454,747.091L1454.52,746.754L1455.04,746.415L1455.55,746.074L1456.07,745.734L1456.58,745.39L1457.1,745.042L1457.61,744.695L1458.12,744.347L1458.63,743.996L1459.14,743.643L1459.65,743.289L1460.15,742.933L1460.66,742.575L1461.16,742.216L1461.67,741.854L1462.17,741.49L1462.67,741.126L1463.17,740.76L1463.67,740.392L1464.17,740.021L1464.67,739.651L1465.16,739.278L1465.66,738.902L1466.15,738.524L1466.64,738.146L1467.13,737.766L1467.62,737.384L1468.11,737.001L1468.6,736.616L1469.09,736.229L1469.57,735.84L1470.06,735.45L1470.54,735.056L1471.02,734.663L1471.5,734.27L1471.99,733.87L1472.46,733.471L1472.94,733.072L1473.42,732.669L1473.89,732.265L1474.37,731.86L1474.84,731.452L1475.31,731.043L1475.78,730.633L1476.25,730.222L1476.72,729.807L1477.18,729.391L1477.65,728.974L1478.11,728.556L1478.58,728.134L1479.04,727.713L1479.5,727.289L1479.96,726.862L1480.42,726.435L1480.88,726.007L1481.33,725.577L1481.78,725.145L1482.24,724.711L1482.69,724.276L1483.14,723.838L1483.59,723.4L1484.04,722.959L1484.49,722.517L1484.93,722.075L1485.38,721.63L1485.82,721.181L1486.26,720.733L1486.7,720.283L1487.14,719.831L1487.58,719.378L1488.02,718.925L1488.45,718.467L1488.89,718.008L1489.32,717.549L1489.75,717.087L1490.18,716.625L1490.61,716.161L1491.04,715.693L1491.47,715.225L1491.89,714.756L1492.32,714.287L1492.74,713.813L1493.16,713.337L1493.58,712.864L1494,712.387L1494.42,711.908L1494.83,711.426L1495.25,710.944L1495.66,710.462L1496.07,709.976L1496.48,709.49L1496.89,708.999L1497.3,708.51L1497.71,708.018L1498.11,707.525L1498.52,707.032L1498.92,706.535L1499.32,706.036L1499.72,705.539L1500.12,705.039L1500.52,704.533L1500.91,704.031L1501.31,703.526L1501.7,703.018L1502.09,702.508L1502.48,701.999L1502.87,701.488L1503.26,700.975L1503.64,700.461L1504.03,699.943L1504.41,699.425L1504.79,698.907L1505.17,698.386L1505.55,697.862L1505.93,697.337L1506.3,696.814L1506.68,696.288L1507.05,695.757L1507.42,695.227L1507.79,694.697L1508.16,694.164L1508.53,693.629L1508.9,693.092L1509.26,692.557L1509.62,692.017L1509.99,691.475L1510.34,690.935L1510.7,690.391L1511.06,689.845L1511.41,689.3L1511.77,688.753L1512.12,688.202L1512.47,687.65L1512.82,687.098L1513.17,686.545L1513.52,685.988L1513.86,685.432L1514.2,684.874L1514.55,684.313L1514.89,683.752L1515.23,683.192L1515.56,682.628L1515.9,682.06L1516.23,681.493L1516.57,680.925L1516.9,680.355L1517.23,679.783L1517.56,679.21L1517.88,678.636L1518.21,678.06L1518.53,677.484L1518.85,676.905L1519.17,676.324L1519.49,675.745L1519.81,675.161L1520.12,674.576L1520.44,673.991L1520.75,673.403L1521.06,672.816L1521.37,672.227L1521.68,671.632L1521.98,671.04L1522.29,670.446L1522.59,669.849L1522.89,669.253L1523.19,668.655L1523.49,668.056L1523.78,667.455L1524.08,666.852L1524.37,666.246L1524.66,665.641L1524.95,665.034L1525.24,664.426L1525.53,663.816L1525.81,663.205L1526.1,662.595L1526.38,661.979L1526.66,661.363L1526.93,660.749L1527.21,660.13L1527.49,659.51L1527.76,658.889L1528.03,658.269L1528.3,657.644L1528.57,657.019L1528.83,656.394L1529.1,655.768L1529.36,655.138L1529.62,654.506L1529.88,653.876L1530.14,653.244L1530.39,652.608L1530.65,651.974L1530.9,651.338L1531.15,650.698L1531.4,650.059L1531.65,649.418L1531.89,648.776L1532.14,648.133L1532.38,647.489L1532.62,646.84L1532.86,646.193L1533.1,645.546L1533.33,644.896L1533.57,644.242L1533.8,643.591L1534.02,642.94L1534.25,642.281L1534.48,641.624L1534.7,640.968L1534.93,640.308L1535.15,639.647L1535.37,638.986L1535.58,638.322L1535.8,637.657L1536.01,636.992L1536.22,636.327L1536.43,635.66L1536.64,634.989L1536.85,634.316L1537.05,633.645L1537.25,632.972L1537.45,632.296L1537.65,631.621L1537.85,630.944L1538.05,630.266L1538.24,629.587L1538.43,628.904L1538.62,628.225L1538.81,627.541L1538.99,626.854L1539.18,626.171L1539.36,625.483L1539.54,624.792L1539.72,624.105L1539.89,623.416L1540.07,622.721L1540.24,622.027L1540.41,621.334L1540.58,620.638L1540.75,619.942L1540.91,619.243L1541.07,618.543L1541.23,617.844L1541.39,617.14L1541.55,616.438L1541.7,615.735L1541.86,615.028L1542.01,614.323L1542.16,613.613L1542.31,612.905L1542.45,612.195L1542.6,611.482L1542.74,610.772L1542.88,610.056L1543.01,609.341L1543.15,608.628L1543.28,607.908L1543.41,607.19L1543.54,606.47L1543.67,605.749L1543.8,605.027L1543.92,604.303L1544.04,603.578L1544.16,602.854L1544.28,602.127L1544.39,601.399L1544.51,600.671L1544.62,599.94L1544.73,599.208L1544.84,598.475L1544.94,597.742L1545.05,597.009L1545.15,596.272L1545.25,595.533L1545.34,594.796L1545.44,594.058L1545.53,593.318L1545.62,592.575L1545.71,591.833L1545.8,591.089L1545.88,590.343L1545.97,589.597L1546.05,588.85L1546.12,588.102L1546.2,587.353L1546.27,586.602L1546.35,585.851L1546.42,585.098L1546.48,584.344L1546.55,583.589L1546.61,582.835L1546.67,582.077L1546.74,581.316L1546.79,580.559L1546.85,579.8L1546.9,579.035L1546.95,578.274L1547,577.512L1547.05,576.744L1547.09,575.98L1547.13,575.214L1547.17,574.445L1547.21,573.677L1547.25,572.908L1547.28,572.135L1547.31,571.361L1547.34,570.589L1547.37,569.817L1547.39,569.04L1547.41,568.262L1547.43,567.487L1547.45,566.709L1547.47,565.928L1547.48,565.147L1547.49,564.368L1547.5,563.585L1547.51,562.799L1547.51,562.014L1547.52,561.231L1547.52,560.444L1547.51,559.656L1547.51,558.866L1547.5,558.076L1547.49,557.287L1547.48,556.496L1547.47,555.703L1547.45,554.908L1547.43,554.113L1547.41,553.316L1547.39,552.52L1547.37,551.723L1547.34,550.925L1547.31,550.124L1547.28,549.325L1547.25,548.524L1547.21,547.719L1547.17,546.916L1547.13,546.12L1547.09,545.323L1547.04,544.529L1547,543.738L1546.95,542.944L1546.89,542.151L1546.84,541.363L1546.79,540.572L1546.73,539.783L1546.67,538.996L1546.61,538.209L1546.54,537.423L1546.48,536.637L1546.41,535.853L1546.34,535.07L1546.27,534.29L1546.19,533.508L1546.12,532.726L1546.04,531.95L1545.96,531.17L1545.88,530.392L1545.8,529.617L1545.71,528.841L1545.62,528.066L1545.53,527.295L1545.44,526.522L1545.34,525.751L1545.25,524.981L1545.15,524.209L1545.05,523.442L1544.95,522.677L1544.84,521.909L1544.74,521.143L1544.63,520.38L1544.52,519.616L1544.4,518.853L1544.29,518.093L1544.17,517.332L1544.06,516.573L1543.93,515.815L1543.81,515.058L1543.69,514.302L1543.56,513.547L1543.43,512.794L1543.3,512.038L1543.17,511.287L1543.04,510.537L1542.9,509.786L1542.77,509.039L1542.62,508.29L1542.48,507.543L1542.34,506.798L1542.19,506.053L1542.05,505.309L1541.9,504.567L1541.75,503.827L1541.59,503.085L1541.44,502.346L1541.28,501.609L1541.12,500.871L1540.96,500.134L1540.8,499.4L1540.63,498.666L1540.47,497.931L1540.3,497.201L1540.13,496.47L1539.96,495.741L1539.79,495.013L1539.61,494.284L1539.43,493.559L1539.25,492.834L1539.07,492.111L1538.89,491.387L1538.7,490.664L1538.52,489.943L1538.33,489.223L1538.14,488.507L1537.94,487.789L1537.75,487.071L1537.56,486.356L1537.36,485.644L1537.16,484.93L1536.96,484.217L1536.75,483.509L1536.55,482.799L1536.34,482.089L1536.13,481.384L1535.92,480.677L1535.71,479.972L1535.5,479.268L1535.28,478.565L1535.06,477.864L1534.85,477.164L1534.62,476.465L1534.4,475.766L1534.18,475.07L1533.95,474.375L1533.72,473.68L1533.49,472.988L1533.26,472.295L1533.03,471.604L1532.79,470.914L1532.56,470.225L1532.32,469.54L1532.08,468.852L1531.84,468.167L1531.59,467.484L1531.35,466.8L1531.1,466.121L1530.85,465.44L1530.6,464.761L1530.35,464.084L1530.1,463.407L1529.84,462.731L1529.59,462.059L1529.33,461.386L1529.07,460.713L1528.8,460.042L1528.54,459.373L1528.27,458.706L1528.01,458.04L1527.74,457.375L1527.47,456.71L1527.19,456.046L1526.92,455.386L1526.65,454.724L1526.37,454.065L1526.09,453.407L1525.81,452.75L1525.53,452.094L1525.25,451.441L1524.96,450.789L1524.67,450.137L1524.38,449.485L1524.1,448.837L1523.8,448.19L1523.51,447.542L1523.21,446.897L1522.92,446.254L1522.62,445.61L1522.32,444.969L1522.02,444.329L1521.72,443.69L1521.41,443.052L1521.11,442.416L1520.8,441.781L1520.49,441.147L1520.18,440.515L1519.87,439.884L1519.56,439.255L1519.24,438.626L1518.92,437.999L1518.61,437.374L1518.29,436.749L1517.96,436.125L1517.64,435.503L1517.32,434.883L1516.99,434.264L1516.66,433.646L1516.34,433.031L1516,432.415L1515.67,431.8L1515.34,431.188L1515.01,430.579L1514.67,429.968L1514.33,429.358L1513.99,428.752L1513.65,428.147L1513.31,427.543L1512.96,426.94L1512.62,426.337L1512.27,425.738L1511.92,425.139L1511.57,424.541L1511.22,423.944L1510.87,423.351L1510.52,422.758L1510.16,422.166L1509.8,421.575L1509.44,420.986L1509.09,420.398L1508.72,419.812L1508.36,419.225L1508,418.642L1507.63,418.061L1507.27,417.48L1506.9,416.902L1506.53,416.323L1506.15,415.746L1505.78,415.17L1505.41,414.597L1505.03,414.026L1504.66,413.455L1504.28,412.886L1503.9,412.317L1503.52,411.75L1503.14,411.185L1502.75,410.622L1502.37,410.06L1501.98,409.499L1501.59,408.939L1501.21,408.382L1500.82,407.825L1500.42,407.27L1500.03,406.717L1499.64,406.165L1499.24,405.614L1498.84,405.064L1498.44,404.517L1498.05,403.972L1497.64,403.427L1497.24,402.883L1496.84,402.342L1496.43,401.801L1496.03,401.262L1495.62,400.726L1495.21,400.189L1494.8,399.655L1494.39,399.122L1493.98,398.591L1493.56,398.061L1493.15,397.532L1492.73,397.005L1492.31,396.48L1491.9,395.957L1491.48,395.434L1491.05,394.913L1490.63,394.395L1490.21,393.876L1489.78,393.36L1489.36,392.845L1488.93,392.333L1488.5,391.82L1488.07,391.31L1487.64,390.802L1487.2,390.294L1486.77,389.789L1486.34,389.285L1485.9,388.783L1485.46,388.282L1485.02,387.782L1484.58,387.285L1484.14,386.788L1483.7,386.293L1483.26,385.8L1482.81,385.309L1482.37,384.819L1481.92,384.331L1481.47,383.844L1481.02,383.358L1480.57,382.875L1480.12,382.393L1479.67,381.911L1479.21,381.432L1478.76,380.955L1478.3,380.48L1477.85,380.006L1477.39,379.532L1476.93,379.061L1476.47,378.592L1476.01,378.124L1475.54,377.658L1475.08,377.193L1474.61,376.73L1474.14,376.268L1473.68,375.809L1473.21,375.351L1472.74,374.894L1472.27,374.439L1471.8,373.986L1471.33,373.533L1470.85,373.083L1470.38,372.636L1469.9,372.188L1469.42,371.743L1468.94,371.299L1468.47,370.857L1467.99,370.417L1467.5,369.978L1467.02,369.542L1466.54,369.105L1466.05,368.672L1465.57,368.239L1465.08,367.809L1464.6,367.381L1464.11,366.953L1463.62,366.527L1463.12,366.104L1462.63,365.681L1462.14,365.261L1461.65,364.843L1461.15,364.425L1460.66,364.009L1460.16,363.595L1459.66,363.184L1459.16,362.773L1458.66,362.363L1458.16,361.957L1457.66,361.552L1457.16,361.148L1456.65,360.746L1456.15,360.345L1455.64,359.946L1455.14,359.55L1454.63,359.154L1454.12,358.76L1453.61,358.368L1453.1,357.978L1452.59,357.59L1452.08,357.203L1451.57,356.818L1451.05,356.435L1450.54,356.053L1450.02,355.673L1449.5,355.294L1448.99,354.918L1448.47,354.543L1447.95,354.171L1447.43,353.799L1446.91,353.429L1446.38,353.061L1445.86,352.695L1445.34,352.331L1444.81,351.969L1444.29,351.608L1443.76,351.248L1443.23,350.89L1442.7,350.535L1442.17,350.181L1441.64,349.829L1441.11,349.478L1440.58,349.13L1440.05,348.783L1439.51,348.437L1438.98,348.094L1438.44,347.752L1437.91,347.413L1437.37,347.074L1436.83,346.738L1436.3,346.404L1435.76,346.07L1435.21,345.74L1434.67,345.41L1434.13,345.083L1433.59,344.757L1433.05,344.433L1432.5,344.111L1431.95,343.79L1431.41,343.472L1430.86,343.155L1430.32,342.84L1429.77,342.527L1429.22,342.216L1428.67,341.906L1428.12,341.598L1427.57,341.292L1427.01,340.988L1426.46,340.685L1425.9,340.385L1425.35,340.086L1424.8,339.789L1424.24,339.494L1423.68,339.2L1423.12,338.909L1422.57,338.619L1422.01,338.331L1421.45,338.045L1420.89,337.76L1420.32,337.478L1419.76,337.198L1419.2,336.919L1418.64,336.642L1418.07,336.367L1417.51,336.093L1416.94,335.822L1416.38,335.552L1415.81,335.285L1415.24,335.018L1414.67,334.754L1414.1,334.492L1413.53,334.232L1412.96,333.973L1412.39,333.716L1411.82,333.462L1411.24,333.209L1410.67,332.957L1410.1,332.708L1409.52,332.461L1408.94,332.215L1408.37,331.971L1407.79,331.73L1407.21,331.49L1406.64,331.251L1406.06,331.015L1405.48,330.781L1404.9,330.548L1404.32,330.318L1403.74,330.089L1403.15,329.862L1402.57,329.637L1401.99,329.414L1401.4,329.193L1400.82,328.973Z" style="fill:rgb(103,109,123);"/>
    </g>
    <g transform="matrix(1,0,0,1,-46,-48)">
        <path d="M1222,355C1133.43,578.872 1197.29,724.549 1439,779C1615.77,649.469 1468.68,294.167 1222,355Z" style="fill:rgb(52,56,65);"/>
    </g>
    <g transform="matrix(1,0,0,1,-46,-48)">
        <path d="M1182,525C1182,525 1125.11,504.663 1112,500C1080.67,488.858 1077.34,516.721 1102,527C1113.71,531.882 1178,553 1178,553C1173.37,598.098 1186.94,636.703 1221,668C1221,668 1183.12,703.769 1176,710C1156.79,726.801 1174.86,747.506 1194,731C1204.12,722.276 1243,686 1243,686C1262.45,699.449 1285.98,708.072 1316,709C1316,709 1329.78,762.826 1332,776C1335.14,794.655 1357.79,795.577 1360,776C1361.33,764.265 1343,706 1343,706C1383.71,688.381 1412.1,660.865 1423,619C1423,619 1435.57,617.343 1442,616C1463.54,611.499 1456.79,588.549 1442,588C1437,587.814 1424,592 1424,592C1424,513.322 1363.51,451.684 1287,446C1287,446 1280.85,413.273 1280,406C1276.29,374.165 1244.91,382.11 1254,417C1256.09,425.009 1259,451 1259,451C1222.07,460.882 1198.13,487.815 1182,525Z" style="fill:rgb(35,39,42);"/>
    </g>
    <g transform="matrix(1.02983,-0.200808,0.239695,1.22926,-234.371,76.0282)">
        <path d="M1308,500C1358.07,503.394 1394.84,537.381 1399,583C1400.72,601.816 1397.72,619.446 1387.28,633.349C1372.3,653.295 1347.98,667.593 1318.03,667.593C1267.81,667.593 1222.51,625.71 1220.94,579.928C1219.33,532.681 1257.07,496.547 1308,500ZM1305.08,512.539C1326.09,512.673 1353.36,523.375 1369.83,541.013C1382.89,555.001 1388.86,574.322 1387.68,589.485C1386.49,604.691 1374.65,658.558 1314.22,654.768C1295.84,653.615 1278.66,648.329 1264.02,636.806C1248.74,624.776 1236.3,607.3 1234.04,590.419C1231.27,569.779 1235.64,547.855 1252.39,532.405C1264.48,521.258 1286.32,512.419 1305.08,512.539Z" style="fill:rgb(52,56,65);"/>
    </g>
    <g transform="matrix(1,0,0,1,-46,-48)">
        <path d="M1256,602C1261.55,610.645 1269.67,621.972 1281,629C1294.79,637.556 1311.26,638.427 1322.58,634.038C1362.66,618.498 1355.6,580.414 1349,562C1338,531.322 1299.74,510.34 1275.16,523.045C1243.44,539.439 1242.98,581.714 1256,602Z" style="fill:rgb(52,56,65);"/>
    </g>
    <g transform="matrix(0.678326,0,0,0.656111,371.47,152.3)">
        <path d="M1253.05,602C1258.6,610.645 1269.07,623.505 1280.4,630.534C1294.19,639.089 1311.26,638.427 1322.58,634.038C1362.66,618.498 1357.77,575.789 1351.16,557.375C1340.16,526.697 1301.5,506.698 1275.16,523.045C1244.76,541.913 1240.03,581.714 1253.05,602Z" style="fill:rgb(35,39,42);"/>
    </g>
    <g transform="matrix(0.155421,0,0,0.158331,1051.31,439.112)">
        <path d="M1253.05,602C1258.6,610.645 1269.07,623.505 1280.4,630.534C1294.19,639.089 1311.26,638.427 1322.58,634.038C1362.66,618.498 1357.77,575.789 1351.16,557.375C1340.16,526.697 1301.5,506.698 1275.16,523.045C1244.76,541.913 1240.03,581.714 1253.05,602Z" style="fill:rgb(52,56,65);"/>
    </g>
</svg>
