<?xml version="1.0"?><svg width="640" height="480" xmlns="http://www.w3.org/2000/svg">
 <metadata id="metadata7">image/svg+xml</metadata>
 <g>
  <title>Layer 1</title>
  <g id="layer1">
   <g id="g3351">
    <path fill="#d7ded1" fill-opacity="0.976473" fill-rule="nonzero" stroke-width="3.543307" stroke-linecap="round" stroke-linejoin="round" stroke-miterlimit="4" stroke-dashoffset="0" d="m220.59903,10.971313c-23.18399,0 -44,-21.336014 -44,-4.5c0,3.034393 -10.387848,3.951843 -9.25,6.71875c-63.075134,10.384003 -112.233124,47.320801 -140.78125,102.093735c-25.903473,2.512268 -12.96875,17.78157 -12.96875,38.6875c0,14.47583 -23.362488,29.172485 -8.84375,36.46875c-0.478119,5.637527 -0.71875,11.333191 -0.71875,17.09375c0,110.399979 89.600006,200.000015 200,200.000015c10.394272,0 20.594421,-0.812683 30.5625,-2.343811c-0.002625,0.092285 0,0.188416 0,0.281311c0,5.796021 8.152008,-3.5 14.5,-3.5c6.348007,0 8.5,9.296021 8.5,3.5c0,-1.748535 -0.452148,-3.4245 -1.28125,-4.875c16.476959,-4.456482 28.622894,-9.945496 43.125,-18.218811c13.650055,3.946106 15.436432,4.087219 20.65625,0.593811c12.485474,-8.356018 -6.218689,-19.646484 18.5,-12.5c6.44632,1.863708 -1.935699,-5.665833 -6.4375,-9.406311c5.842499,-4.882019 11.407104,-10.085815 16.656311,-15.593689c2.567108,4.499268 2.110291,-7.5 7.281189,-7.5c8.003998,0 5.5,-3.16803 5.5,-12c0,-6.263184 10.723511,-0.685791 5.968811,-3.3125c19.2052,-27.219727 31.795074,-59.440491 35.406189,-94.312515c6.594086,-3.316101 5.625,-18.121887 -0.375,-37.375c-6.733612,-21.607071 5.727997,-44 -2,-44c-1.78949,0 -3.488983,0.986633 -5.0625,2.78125c-20.423096,-67.690521 -69.7659,-117.285782 -139.0625,-133.781235c2.002075,-3.556335 -5.875,-5.422546 -5.875,-9.5c0,-16.836014 -6.815994,4.5 -30,4.5z" id="path2506"/>
    <path fill="#eef0ec" fill-opacity="0.976471" fill-rule="evenodd" stroke-width="1px" d="m193.568497,12.477005c-4.940414,0.192184 -7.520538,5.871567 -11.15625,9.4375c-16.425842,0.763687 -33.058792,4.950378 -49.125,14.09375c-40.526016,23.063583 -68.586075,60.084503 -87.031265,93.0625c-7.610107,-0.276245 -15.181335,-2.19873 -22.6875,-1.9375c-8.372314,2.417984 -5.007324,11.75885 -1.59375,16.9375c3.742554,7.900284 1.799744,17.965897 -4.71875,23.84375c-6.806824,3.746399 -4.638458,12.161743 3.03125,12.3125c0.830566,0.312134 1.622314,0.478516 2.375,0.53125c-4.152313,11.467331 -6.03125,18.59375 -6.03125,18.59375c0,0 216.365341,-190.207001 306.875,-117.375c0,0 -33.434143,-30.919891 -78.281235,-48.4375c0.584518,-5.485886 3.553131,-14.121567 -2.5625,-17.21875c-6.02536,2.9207 -12.850784,2.840393 -19.375,3.21875c-9.622177,1.651154 -17.833191,-4.358261 -26.78125,-6.5625c-1.074738,-0.373734 -2.039246,-0.534943 -2.9375,-0.5z" id="path2510"/>
    <path fill="#c4ccbd" fill-opacity="0.976471" fill-rule="evenodd" stroke-width="1px" d="m382.193481,250.977005c-109.601532,59.397018 -180.308365,128.689926 -292.03125,106.062485c0,0 69.280853,45.306946 143.718765,38c1.833374,1.749268 3.533035,3.653259 5.875,4.59375c4.63588,0.684875 8.780075,-2.673035 12,-5.59375c0.662109,-0.635986 1.062164,-1.358093 1.28125,-2.09375c17.636276,-4.009949 35.268753,-11.37207 52.031235,-23.4375c3.292053,2.919312 6.495636,6.164429 10.125,5.375c3.81665,-4.948364 8.388733,-9.620605 11.8125,-14.4375c-0.277527,-2.013733 -0.829651,-5.316528 -1.84375,-8.1875c5.445007,-5.506531 10.744141,-11.602417 15.875,-18.375c4.134979,-2.653809 7.908142,-5.920288 11.25,-9.53125c2.111023,-2.509155 5.335693,-5.636597 3.53125,-9.1875c-0.322144,-0.449463 -0.799927,-0.922485 -1.28125,-1.40625c10.271606,-17.183655 19.5961,-37.600708 27.65625,-61.781235z" id="path2512"/>
   </g>
   <path fill="#c4ccbe" fill-rule="nonzero" stroke-width="3.543307" stroke-linecap="round" stroke-linejoin="round" stroke-miterlimit="4" stroke-dashoffset="0" id="path2385" d="m221.034988,212.503937a61.088596,61.088596 0 1 1-122.177208,0a61.088596,61.088596 0 1 1122.177208,0z"/>
   <path fill="#a2ae98" fill-rule="nonzero" stroke-width="3.543307" stroke-linecap="round" stroke-linejoin="round" stroke-miterlimit="4" stroke-dashoffset="0" id="path2387" d="m152.079483,157.53038c-28.200531,4.120209 -48.509232,28.373749 -48.508942,56.059692c6.433502,-23.885284 26.928955,-39.83548 52.949371,-43.637177c19.193024,-2.804138 37.206696,0.191254 50.787201,12.003265c-11.814209,-17.482269 -32.963745,-27.678619 -55.227631,-24.425781z"/>
   <path fill="#ececec" fill-rule="nonzero" stroke-width="3.543307" stroke-linecap="round" stroke-linejoin="round" stroke-miterlimit="4" stroke-dashoffset="0" d="m148.83165,147.744003c-28.199432,4.127655 -50.247147,24.459412 -50.239548,52.145386c6.4272,-23.886993 26.481277,-42.896912 52.500717,-46.705475c19.192261,-2.809204 37.64389,3.235779 51.227478,15.044189c-11.818787,-17.479156 -31.225616,-23.742798 -53.488647,-20.4841z" id="path2392"/>
   <path fill="#a2ae98" fill-rule="nonzero" stroke-width="3.543307" stroke-linecap="round" stroke-linejoin="round" stroke-miterlimit="4" stroke-dashoffset="0" id="path2394" d="m221.287247,211.102005c-0.237427,6.156311 -1.372192,12.20816 -3.3125,17.96875c1.490784,-0.910553 3.096344,-1.633148 4.8125,-2.125c0.162964,-5.346039 -0.321136,-10.6828 -1.5,-15.84375zm12.4375,21.5c-0.308136,7.989349 -5.262054,15.429321 -13.1875,18.5c-6.053955,1.943115 -11.390839,3.158295 -12.03125,-4.03125c-1.007874,1.345673 -2.071442,2.639313 -3.1875,3.90625c-0.6828,-0.276825 -1.381287,-0.589722 -2.03125,-0.9375c0.517334,0.483826 1.079285,0.93219 1.65625,1.375c-6.50174,7.246872 -14.773468,13.118637 -24.46875,16.874985c-18.086731,7.007568 -37.411499,5.241394 -53.28125,-3.25c15.410431,14.412598 40.050659,23.566284 61.03125,15.4375c10.818329,-4.191467 19.313812,-11.992432 25.1875,-21.59375c0.840271,-3.345718 2.378235,-1.776978 9.625,-3.843735c8.589478,-3.327942 12.680206,-13.713654 10.6875,-22.4375z"/>
   <g id="g3468">
    <path fill="#c4ccbe" fill-rule="nonzero" stroke-width="3.543307" stroke-linecap="round" stroke-linejoin="round" stroke-miterlimit="4" stroke-dashoffset="0" id="path2407" d="m195.98848,359.301361a26.238199,26.238199 0 1 1-52.47641,0a26.238199,26.238199 0 1 152.47641,0z"/>
    <path fill="#a2ae98" fill-rule="nonzero" stroke-width="3.543307" stroke-linecap="round" stroke-linejoin="round" stroke-miterlimit="4" stroke-dashoffset="0" id="path2409" d="m166.371201,335.690125c-12.112396,1.769653 -20.835205,12.186829 -20.835083,24.078186c2.763245,-10.258972 11.566254,-17.109741 22.742279,-18.742615c8.243591,-1.204407 15.980652,0.082153 21.813599,5.155518c-5.07431,-7.508789 -14.158234,-11.888184 -23.720795,-10.491089z"/>
    <path fill="#ececec" fill-rule="nonzero" stroke-width="3.543307" stroke-linecap="round" stroke-linejoin="round" stroke-miterlimit="4" stroke-dashoffset="0" d="m164.976212,331.486755c-12.111938,1.772888 -21.581635,10.505554 -21.5784,22.396973c2.760559,-10.259705 11.373993,-18.424622 22.549591,-20.060425c8.243286,-1.206604 16.168427,1.389771 22.002716,6.461609c-5.076294,-7.507507 -13.411713,-10.197754 -22.973907,-8.798157z" id="path2411"/>
    <path fill="#a2ae98" fill-rule="nonzero" stroke-width="3.543307" stroke-linecap="round" stroke-linejoin="round" stroke-miterlimit="4" stroke-dashoffset="0" d="m182.106735,388.70929c11.414215,-4.422363 16.848694,-18.207031 14.200684,-29.799866c-0.409485,10.61676 -6.991119,20.49292 -17.522949,24.573425c-7.768433,3.009827 -16.07254,2.24115 -22.888763,-1.405945c6.618927,6.190308 17.199646,10.123779 26.211029,6.632385z" id="path2413"/>
    <path fill="#ececec" fill-rule="nonzero" stroke-width="3.543307" stroke-linecap="round" stroke-linejoin="round" stroke-miterlimit="4" stroke-dashoffset="0" id="path2415" d="m175.204727,382.89386c11.883484,-2.936829 19.554138,-14.151306 18.399963,-25.986572c-1.754578,10.47876 -8.787659,18.314514 -19.752472,21.024292c-8.087769,1.998779 -16.976685,1.306091 -23.274475,-3.177246c5.779083,6.980896 15.245148,10.458069 24.626984,8.139526z"/>
   </g>
   <path fill="#c4ccbe" fill-rule="nonzero" stroke-width="3.543307" stroke-linecap="round" stroke-linejoin="round" stroke-miterlimit="4" stroke-dashoffset="0" id="path2419" d="m85.500237,260.356445a12.523919,12.523919 0 1 1-25.047852,0a12.523919,12.523919 0 1 125.047852,0z"/>
   <path fill="#808080" fill-rule="nonzero" stroke-width="3.543307" stroke-linecap="round" stroke-linejoin="round" stroke-miterlimit="4" stroke-dashoffset="0" id="path2421" d="m71.363419,249.086227c-5.781464,0.844666 -9.945007,5.816956 -9.944946,11.492935c1.318954,-4.896805 5.520767,-8.166794 10.855286,-8.946182c3.934814,-0.57489 7.627838,0.039215 10.412003,2.460815c-2.422058,-3.584076 -6.75798,-5.674469 -11.322342,-5.007568z"/>
   <path fill="#ececec" fill-rule="nonzero" stroke-width="3.543307" stroke-linecap="round" stroke-linejoin="round" stroke-miterlimit="4" stroke-dashoffset="0" d="m70.697571,247.07988c-5.78125,0.846222 -10.3013,5.014496 -10.299744,10.690445c1.317657,-4.89711 5.429001,-8.794388 10.763306,-9.57518c3.934647,-0.575928 7.717468,0.663361 10.502274,3.084229c-2.423004,-3.583435 -6.401642,-4.867554 -10.965836,-4.199493z" id="path2423"/>
   <path fill="#808080" fill-rule="nonzero" stroke-width="3.543307" stroke-linecap="round" stroke-linejoin="round" stroke-miterlimit="4" stroke-dashoffset="0" d="m78.874252,274.393188c5.448212,-2.110901 8.042191,-8.690552 6.778229,-14.223999c-0.195435,5.067566 -3.33696,9.781616 -8.363998,11.729309c-3.707993,1.436646 -7.671692,1.069763 -10.925201,-0.671082c3.159332,2.954773 8.209702,4.832275 12.510971,3.165771z" id="path2425"/>
   <path fill="#ececec" fill-rule="nonzero" stroke-width="3.543307" stroke-linecap="round" stroke-linejoin="round" stroke-miterlimit="4" stroke-dashoffset="0" id="path2427" d="m75.579819,271.617371c5.672195,-1.401794 9.333511,-6.754639 8.782623,-12.403809c-0.837509,5.001648 -4.194504,8.74176 -9.428207,10.035217c-3.860443,0.954041 -8.103271,0.623413 -11.109314,-1.516541c2.758469,3.332092 7.276779,4.991821 11.754898,3.885132z"/>
   <path fill="#daded5" fill-rule="nonzero" stroke-width="3.543307" stroke-linecap="round" stroke-linejoin="round" stroke-miterlimit="4" stroke-dashoffset="0" d="m138.826828,108.315842a23.6632,23.6632 0 1 1-47.326401,0a23.6632,23.6632 0 1 147.326401,0z" id="path2431"/>
   <path fill="#808080" fill-rule="nonzero" stroke-width="3.543307" stroke-linecap="round" stroke-linejoin="round" stroke-miterlimit="4" stroke-dashoffset="0" d="m112.116623,87.021713c-10.923721,1.595978 -18.790466,10.990814 -18.790359,21.71521c2.492081,-9.252167 10.431152,-15.430634 20.510406,-16.903259c7.434586,-1.086212 14.412338,0.074097 19.672836,4.649567c-4.576324,-6.771881 -12.768768,-10.721527 -21.392883,-9.461517z" id="path2433"/>
   <path fill="#ececec" fill-rule="nonzero" stroke-width="3.543307" stroke-linecap="round" stroke-linejoin="round" stroke-miterlimit="4" stroke-dashoffset="0" id="path2435" d="m110.858536,83.230881c-10.923294,1.598877 -19.463654,9.474548 -19.460724,20.198944c2.489639,-9.252838 10.257767,-16.616486 20.336609,-18.091766c7.434296,-1.088165 14.581696,1.253418 19.843414,5.827484c-4.578125,-6.770691 -12.09552,-9.19696 -20.719299,-7.934662z"/>
   <path fill="#808080" fill-rule="nonzero" stroke-width="3.543307" stroke-linecap="round" stroke-linejoin="round" stroke-miterlimit="4" stroke-dashoffset="0" id="path2437" d="m126.307907,134.837692c10.294067,-3.988373 15.195221,-16.420258 12.807037,-26.875336c-0.369263,9.574799 -6.304993,18.481781 -15.803253,22.161804c-7.006042,2.714447 -14.495224,2.02121 -20.642517,-1.268005c5.969376,5.582855 15.511719,9.13028 23.638733,5.981537z"/>
   <path fill="#ececec" fill-rule="nonzero" stroke-width="3.543307" stroke-linecap="round" stroke-linejoin="round" stroke-miterlimit="4" stroke-dashoffset="0" d="m120.083267,129.592972c10.717255,-2.64859 17.635132,-12.762543 16.594208,-23.436279c-1.582397,9.450348 -7.925262,16.51712 -17.813995,18.960968c-7.294067,1.802612 -15.310638,1.177948 -20.990356,-2.865417c5.211929,6.295807 13.749008,9.431732 22.210144,7.340729z" id="path2439"/>
   <path fill="#daded5" fill-rule="nonzero" stroke-width="3.543307" stroke-linecap="round" stroke-linejoin="round" stroke-miterlimit="4" stroke-dashoffset="0" d="m268.500214,72.356483a12.523919,12.523919 0 1 1-25.047852,0a12.523919,12.523919 0 1 125.047852,0z" id="path2455"/>
   <path fill="#808080" fill-rule="nonzero" stroke-width="3.543307" stroke-linecap="round" stroke-linejoin="round" stroke-miterlimit="4" stroke-dashoffset="0" d="m254.363419,61.086227c-5.781464,0.844666 -9.945007,5.816956 -9.944946,11.49292c1.318939,-4.89679 5.520782,-8.166779 10.855286,-8.946167c3.934799,-0.57489 7.627853,0.039215 10.412033,2.460815c-2.422058,-3.584076 -6.757996,-5.674469 -11.322372,-5.007568z" id="path2457"/>
   <path fill="#ececec" fill-rule="nonzero" stroke-width="3.543307" stroke-linecap="round" stroke-linejoin="round" stroke-miterlimit="4" stroke-dashoffset="0" id="path2459" d="m253.697556,59.07988c-5.781219,0.846222 -10.30127,5.014496 -10.299744,10.69046c1.317688,-4.897125 5.429016,-8.794403 10.763336,-9.575195c3.934616,-0.575928 7.717453,0.663361 10.502243,3.084229c-2.422974,-3.583435 -6.401611,-4.867554 -10.965836,-4.199493z"/>
   <path fill="#808080" fill-rule="nonzero" stroke-width="3.543307" stroke-linecap="round" stroke-linejoin="round" stroke-miterlimit="4" stroke-dashoffset="0" id="path2461" d="m261.874268,86.393173c5.448181,-2.11087 8.042175,-8.690521 6.778198,-14.223969c-0.195435,5.067535 -3.336975,9.781616 -8.363953,11.729309c-3.708008,1.436646 -7.671738,1.069733 -10.925217,-0.671112c3.159332,2.954773 8.209702,4.832275 12.510971,3.165771z"/>
   <path fill="#ececec" fill-rule="nonzero" stroke-width="3.543307" stroke-linecap="round" stroke-linejoin="round" stroke-miterlimit="4" stroke-dashoffset="0" d="m258.579834,83.617355c5.67218,-1.401764 9.333496,-6.754639 8.782593,-12.403809c-0.837463,5.001678 -4.194519,8.741821 -9.428162,10.035248c-3.860458,0.954041 -8.103287,0.623413 -11.109329,-1.516571c2.758453,3.332123 7.276764,4.991821 11.754898,3.885132z" id="path2463"/>
   <g id="g3418">
    <path fill="#c4ccbe" fill-rule="nonzero" stroke-width="3.543307" stroke-linecap="round" stroke-linejoin="round" stroke-miterlimit="4" stroke-dashoffset="0" id="path2491" d="m366.941956,283.541351a16.753475,19.962606 0 1 1-33.506958,-6.6763a16.753475,19.962606 0 1 133.506958,6.6763z"/>
    <path fill="#a2ae98" fill-rule="nonzero" stroke-width="3.543307" stroke-linecap="round" stroke-linejoin="round" stroke-miterlimit="4" stroke-dashoffset="0" id="path2493" d="m351.610504,261.809326c-8.002228,-0.19458 -15.151031,6.621277 -16.953613,15.668518c3.31955,-7.453674 9.978943,-11.545959 17.362549,-11.366425c5.446259,0.132446 10.191437,2.095642 13.146759,6.697662c-2.101715,-6.358429 -7.238068,-10.8461 -13.555695,-10.999756z"/>
    <path fill="#ececec" fill-rule="nonzero" stroke-width="3.543307" stroke-linecap="round" stroke-linejoin="round" stroke-miterlimit="4" stroke-dashoffset="0" d="m351.356995,258.433868c-8.002411,-0.192108 -15.372803,5.247131 -17.173401,14.2948c3.317993,-7.45462 10.055542,-12.570831 17.439301,-12.393585c5.446381,0.130737 10.113129,3.11441 13.06955,7.715424c-2.10321,-6.357666 -7.01767,-9.464996 -13.335449,-9.616638z" id="path2495"/>
    <path fill="#a2ae98" fill-rule="nonzero" stroke-width="3.543307" stroke-linecap="round" stroke-linejoin="round" stroke-miterlimit="4" stroke-dashoffset="0" d="m353.620514,304.149506c7.958557,-1.912445 13.51825,-11.708771 13.584808,-20.865723c-1.87085,8.02533 -7.570526,14.702026 -14.913849,16.466675c-5.416504,1.301575 -10.602325,-0.339691 -14.401703,-3.98175c3.287903,5.55191 9.44754,9.890686 15.730743,8.380798z" id="path2497"/>
    <path fill="#ececec" fill-rule="nonzero" stroke-width="3.543307" stroke-linecap="round" stroke-linejoin="round" stroke-miterlimit="4" stroke-dashoffset="0" id="path2499" d="m350.095062,298.846893c8.03299,-0.722534 14.630859,-8.27887 15.688049,-17.430237c-2.708832,7.749176 -8.387421,12.816101 -15.799408,13.482758c-5.467194,0.49173 -11.037872,-1.166138 -14.379456,-5.378448c2.631744,6.046509 8.148895,9.896332 14.490814,9.325928z"/>
   </g>
   <path fill="#c4ccbe" fill-rule="nonzero" stroke-width="3.543307" stroke-linecap="round" stroke-linejoin="round" stroke-miterlimit="4" stroke-dashoffset="0" d="m233.973343,233.403305a19.744841,19.744841 0 1 1-39.48967,0a19.744841,19.744841 0 1 139.48967,0z" id="path2524"/>
   <path fill="#ececec" fill-rule="nonzero" stroke-width="3.543307" stroke-linecap="round" stroke-linejoin="round" stroke-miterlimit="4" stroke-dashoffset="0" d="m227.224747,236.602005c-0.308136,7.989349 -13.512054,11.429321 -22.9375,10c-11.126251,7.743256 -17.651245,9.767014 -32.8125,15.937485c-21.586731,4.257568 -39.411499,-2.008606 -55.28125,-10.499985c15.410431,14.412582 40.050659,23.566269 61.03125,15.437485c10.818329,-4.191467 21.313812,-8.492432 27.1875,-18.093735c3.090271,0.404266 5.128235,1.973022 10.625,1.65625c3.589478,0.422058 12.180206,1.286346 12.1875,-14.4375z" id="path2528"/>
   <path fill="#c4ccbe" fill-rule="nonzero" stroke-width="3.543307" stroke-linecap="round" stroke-linejoin="round" stroke-miterlimit="4" stroke-dashoffset="0" d="m263.043091,294.021851a24.768799,24.768799 0 1 1-49.537598,0a24.768799,24.768799 0 1 149.537598,0z" id="path2568"/>
   <path fill="#a2ae98" fill-rule="nonzero" stroke-width="3.543307" stroke-linecap="round" stroke-linejoin="round" stroke-miterlimit="4" stroke-dashoffset="0" d="m235.084641,271.732544c-11.434082,1.670532 -19.668396,11.504333 -19.668274,22.729736c2.608521,-9.684448 10.918518,-16.15155 21.468689,-17.692932c7.781921,-1.136963 15.085693,0.077515 20.591995,4.86676c-4.790146,-7.088257 -13.365372,-11.222473 -22.39241,-9.903564z" id="path2570"/>
   <path fill="#ececec" fill-rule="nonzero" stroke-width="3.543307" stroke-linecap="round" stroke-linejoin="round" stroke-miterlimit="4" stroke-dashoffset="0" id="path2572" d="m233.767776,267.764587c-11.433655,1.673584 -20.373016,9.917236 -20.369965,21.1427c2.605988,-9.68512 10.73703,-17.392822 21.286774,-18.937073c7.781616,-1.138977 15.26297,1.312012 20.770508,6.099792c-4.791992,-7.087036 -12.660614,-9.626648 -21.687317,-8.30542z"/>
   <path fill="#a2ae98" fill-rule="nonzero" stroke-width="3.543307" stroke-linecap="round" stroke-linejoin="round" stroke-miterlimit="4" stroke-dashoffset="0" id="path2574" d="m249.93895,321.782532c10.77504,-4.174683 15.905167,-17.187378 13.405411,-28.130981c-0.386536,10.022156 -6.599548,19.345276 -16.541611,23.197266c-7.333374,2.841248 -15.172455,2.115662 -21.606934,-1.327271c6.24826,5.843689 16.23642,9.556885 24.743134,6.260986z"/>
   <path fill="#ececec" fill-rule="nonzero" stroke-width="3.543307" stroke-linecap="round" stroke-linejoin="round" stroke-miterlimit="4" stroke-dashoffset="0" d="m243.423477,316.292786c11.217987,-2.772339 18.459091,-13.358826 17.369553,-24.53125c-1.656372,9.891846 -8.295547,17.288818 -18.646317,19.846863c-7.634857,1.886841 -16.02597,1.232971 -21.971069,-2.999329c5.455444,6.589966 14.391388,9.872437 23.247833,7.683716z" id="path2576"/>
   <path fill="#e2e4df" fill-opacity="0.976471" fill-rule="nonzero" stroke-width="3.543307" stroke-linecap="round" stroke-linejoin="round" stroke-miterlimit="4" stroke-dashoffset="0" id="path2597" d="m176.588486,41.09166a19.43182,8.81732 0 1 1-38.863647,7.00388a19.43182,8.81732 0 1 138.863647,-7.00388z"/>
   <path fill="#808080" fill-rule="nonzero" stroke-width="3.543307" stroke-linecap="round" stroke-linejoin="round" stroke-miterlimit="4" stroke-dashoffset="0" id="path2599" d="m153.224289,37.110245c-8.86319,2.211334 -14.692383,6.876221 -13.972107,10.872284c1.42514,-3.816315 7.529694,-7.293427 15.707703,-9.333801c6.032196,-1.505005 11.840118,-2.105286 16.467255,-1.178894c-4.212769,-1.846069 -11.205505,-2.105377 -18.20285,-0.359589z"/>
   <path fill="#ececec" fill-rule="nonzero" stroke-width="3.543307" stroke-linecap="round" stroke-linejoin="round" stroke-miterlimit="4" stroke-dashoffset="0" d="m151.9366,35.883926c-8.86264,2.212311 -15.346985,6.410828 -14.62442,10.406464c1.423096,-3.816193 7.307678,-7.709625 15.485199,-9.750916c6.03183,-1.505676 12.05838,-1.690918 16.686401,-0.765228c-4.214142,-1.845367 -10.550232,-1.636932 -17.54718,0.10968z" id="path2601"/>
   <path fill="#808080" fill-rule="nonzero" stroke-width="3.543307" stroke-linecap="round" stroke-linejoin="round" stroke-miterlimit="4" stroke-dashoffset="0" d="m168.088852,52.827133c8.185486,-3.009583 11.375397,-8.367218 8.712219,-11.909546c0.339722,3.622375 -3.936493,7.819702 -11.489197,10.596619c-5.570953,2.048279 -11.767487,2.898285 -17.036407,2.582428c5.276855,1.196838 13.351074,1.106506 19.813385,-1.269501z" id="path2603"/>
   <path fill="#ececec" fill-rule="nonzero" stroke-width="3.543307" stroke-linecap="round" stroke-linejoin="round" stroke-miterlimit="4" stroke-dashoffset="0" id="path2605" d="m162.625076,51.794052c8.622986,-2.572968 13.624664,-7.365387 12.053131,-11.188568c-0.664825,3.755554 -5.398926,7.327454 -13.355286,9.701508c-5.868744,1.751129 -12.493744,2.704742 -17.429352,2.038696c4.702728,1.574585 11.923798,1.479675 18.731506,-0.551636z"/>
   <path fill="#c4ccbe" fill-rule="nonzero" stroke-width="3.543307" stroke-linecap="round" stroke-linejoin="round" stroke-miterlimit="4" stroke-dashoffset="0" id="path2621" d="m81.383698,337.302246a8.77892,20.358398 0 1 1-17.557838,7.695709a8.77892,20.358398 0 1 117.557838,-7.695709z"/>
   <path fill="#a2ae98" fill-rule="nonzero" stroke-width="3.543307" stroke-linecap="round" stroke-linejoin="round" stroke-miterlimit="4" stroke-dashoffset="0" id="path2623" d="m63.444702,323.3255c-3.450821,3.149414 -2.82663,12.511353 1.217484,21.737915c-2.564362,-8.365234 -1.948853,-14.971741 1.235184,-17.877686c2.348587,-2.143433 5.374832,-2.279846 9.051834,0.801208c-4.251419,-5.08197 -8.780151,-7.147827 -11.504501,-4.661438z"/>
   <path fill="#ececec" fill-rule="nonzero" stroke-width="3.543307" stroke-linecap="round" stroke-linejoin="round" stroke-miterlimit="4" stroke-dashoffset="0" d="m61.548462,320.268677c-3.44957,3.151794 -3.648132,11.316345 0.397018,20.542419c-2.565521,-8.365356 -2.460358,-15.963806 0.722534,-18.871887c2.347748,-2.145142 5.88237,-1.292786 9.559296,1.786865c-4.251617,-5.080627 -7.955475,-5.945679 -10.678848,-3.457397z" id="path2625"/>
   <path fill="#a2ae98" fill-rule="nonzero" stroke-width="3.543307" stroke-linecap="round" stroke-linejoin="round" stroke-miterlimit="4" stroke-dashoffset="0" d="m86.74057,362.155762c2.315063,-5.105225 -0.554581,-16.597839 -5.383118,-25.204407c3.473587,8.297607 4.630188,16.925842 2.49411,21.636414c-1.575623,3.474548 -4.615463,4.095947 -8.136414,2.265747c4.319855,3.832458 9.197708,5.332764 11.025421,1.302246z" id="path2627"/>
   <path fill="#ececec" fill-rule="nonzero" stroke-width="3.543307" stroke-linecap="round" stroke-linejoin="round" stroke-miterlimit="4" stroke-dashoffset="0" id="path2629" d="m82.453522,358.655701c2.97728,-4.021423 1.729889,-13.847717 -2.681244,-22.86145c2.976578,8.387756 3.288239,15.499023 0.541107,19.209534c-2.026306,2.736938 -5.235962,3.503052 -8.867828,0.947998c4.307693,4.569031 8.657425,5.878784 11.007965,2.703918z"/>
   <g id="g3633">
    <path fill="#c4ccbe" fill-rule="nonzero" stroke-width="3.543307" stroke-linecap="round" stroke-linejoin="round" stroke-miterlimit="4" stroke-dashoffset="0" d="m335.946106,129.234863a32.798439,28.234137 0 1 1-65.596893,17.525543a32.798439,28.234137 0 1 165.596893,-17.525543z" id="path2443"/>
    <path fill="#a2ae98" fill-rule="nonzero" stroke-width="3.543307" stroke-linecap="round" stroke-linejoin="round" stroke-miterlimit="4" stroke-dashoffset="0" d="m292.135437,113.718788c-14.63208,5.949486 -22.540985,20.072243 -19.122101,32.868217c0.50473,-11.962265 9.539185,-22.274117 23.040131,-27.763672c9.958496,-4.049156 19.999878,-5.248672 28.749847,-1.737404c-8.501801,-6.385345 -21.116058,-8.064163 -32.667877,-3.367142z" id="path2445"/>
    <path fill="#ececec" fill-rule="nonzero" stroke-width="3.543307" stroke-linecap="round" stroke-linejoin="round" stroke-miterlimit="4" stroke-dashoffset="0" id="path2447" d="m289.183258,109.661575c-14.630615,5.952766 -23.957428,18.512375 -20.534637,31.307312c0.50116,-11.962128 8.920807,-23.624855 22.42038,-29.117416c9.957428,-4.051392 20.610565,-3.904274 29.361694,-0.395103c-8.503845,-6.383255 -19.696808,-6.4944 -31.247437,-1.794792z"/>
    <path fill="#a2ae98" fill-rule="nonzero" stroke-width="3.543307" stroke-linecap="round" stroke-linejoin="round" stroke-miterlimit="4" stroke-dashoffset="0" id="path2449" d="m327.048035,165.516083c12.996704,-8.570801 15.826996,-25.219086 9.18399,-36.809418c2.540405,11.561081 -2.847504,24.386688 -14.839508,32.294922c-8.845428,5.833206 -19.446808,7.779419 -29.015839,6.131241c10.053589,4.450745 24.410614,5.14978 34.671356,-1.616745z"/>
    <path fill="#ececec" fill-rule="nonzero" stroke-width="3.543307" stroke-linecap="round" stroke-linejoin="round" stroke-miterlimit="4" stroke-dashoffset="0" d="m316.748413,161.563309c14.010406,-7.128952 20.374847,-21.758347 15.529541,-34.108467c0.819275,11.861824 -5.719543,22.64254 -18.646851,29.220406c-9.535339,4.851868 -20.845856,7.075165 -30.007202,4.354034c9.230988,5.58194 22.063507,6.162216 33.124512,0.534027z" id="path2451"/>
    <g id="g2530">
     <path fill="#a2ae98" fill-rule="nonzero" stroke-width="3.543307" stroke-linecap="round" stroke-linejoin="round" stroke-miterlimit="4" stroke-dashoffset="0" id="path2534" d="m289.486298,137.875122c-2.856598,1.161499 -4.400635,3.918625 -3.733154,6.416763c0.098541,-2.335358 1.862305,-4.348526 4.498047,-5.420227c1.944153,-0.790497 3.90451,-1.024673 5.612732,-0.339172c-1.65976,-1.246613 -4.122406,-1.574356 -6.377625,-0.657364z"/>
     <path fill="#ececec" fill-rule="nonzero" stroke-width="3.543307" stroke-linecap="round" stroke-linejoin="round" stroke-miterlimit="4" stroke-dashoffset="0" d="m288.909943,137.083023c-2.856293,1.16217 -4.677155,3.614136 -4.008911,6.112045c0.097839,-2.335342 1.741577,-4.612213 4.377045,-5.684494c1.94397,-0.790939 4.023743,-0.762222 5.732208,-0.077133c-1.660187,-1.246201 -3.845337,-1.267883 -6.100342,-0.350418z" id="path2536"/>
     <path fill="#a2ae98" fill-rule="nonzero" stroke-width="3.543307" stroke-linecap="round" stroke-linejoin="round" stroke-miterlimit="4" stroke-dashoffset="0" d="m296.302155,147.98735c2.537323,-1.673264 3.089874,-4.923447 1.792969,-7.186203c0.495972,2.25705 -0.555908,4.760956 -2.897064,6.304855c-1.726868,1.138794 -3.796539,1.518738 -5.664673,1.196991c1.962708,0.868881 4.765625,1.005371 6.768768,-0.315643z" id="path2538"/>
     <path fill="#ececec" fill-rule="nonzero" stroke-width="3.543307" stroke-linecap="round" stroke-linejoin="round" stroke-miterlimit="4" stroke-dashoffset="0" id="path2540" d="m294.291412,147.215652c2.735199,-1.391754 3.977722,-4.247818 3.031769,-6.65889c0.159943,2.31575 -1.116608,4.420441 -3.64035,5.704605c-1.861572,0.94722 -4.069672,1.381271 -5.858215,0.850037c1.802124,1.089752 4.307373,1.203018 6.466797,0.104248z"/>
    </g>
    <g id="g3535">
     <path fill="#a2ae98" fill-rule="nonzero" stroke-width="3.543307" stroke-linecap="round" stroke-linejoin="round" stroke-miterlimit="4" stroke-dashoffset="0" d="m303.471802,123.912712c-2.058228,0.836906 -3.170746,2.823494 -2.68985,4.623451c0.071014,-1.682686 1.341858,-3.133209 3.240967,-3.905411c1.400818,-0.569588 2.813293,-0.738304 4.044128,-0.244385c-1.195923,-0.898209 -2.970306,-1.134354 -4.595245,-0.473656z" id="path3539"/>
     <path fill="#ececec" fill-rule="nonzero" stroke-width="3.543307" stroke-linecap="round" stroke-linejoin="round" stroke-miterlimit="4" stroke-dashoffset="0" id="path3541" d="m303.056519,123.342003c-2.058014,0.837364 -3.369995,2.60405 -2.888519,4.403885c0.070496,-1.682663 1.254852,-3.323219 3.153778,-4.095848c1.400665,-0.569878 2.8992,-0.549179 4.130188,-0.055573c-1.196198,-0.897896 -2.77066,-0.913528 -4.395447,-0.252464z"/>
     <path fill="#a2ae98" fill-rule="nonzero" stroke-width="3.543307" stroke-linecap="round" stroke-linejoin="round" stroke-miterlimit="4" stroke-dashoffset="0" id="path3543" d="m308.382813,131.198837c1.828186,-1.205612 2.226288,-3.54747 1.29187,-5.177841c0.35733,1.626259 -0.400574,3.430374 -2.087433,4.542786c-1.244232,0.820526 -2.735504,1.094315 -4.081512,0.862457c1.414185,0.626068 3.433716,0.724411 4.877075,-0.227402z"/>
     <path fill="#ececec" fill-rule="nonzero" stroke-width="3.543307" stroke-linecap="round" stroke-linejoin="round" stroke-miterlimit="4" stroke-dashoffset="0" d="m306.93399,130.642807c1.970795,-1.002808 2.866058,-3.060661 2.184479,-4.79789c0.115234,1.668541 -0.804535,3.185036 -2.622986,4.110298c-1.341278,0.682495 -2.932281,0.995255 -4.220978,0.612457c1.298492,0.785202 3.103577,0.866821 4.659485,0.075134z" id="path3545"/>
    </g>
   </g>
   <path fill="#c4ccbe" fill-rule="nonzero" stroke-width="3.543307" stroke-linecap="round" stroke-linejoin="round" stroke-miterlimit="4" stroke-dashoffset="0" d="m177.372253,190.747955a15.952478,14.75178 0 1 1-31.904953,0a15.952478,14.75178 0 1 131.904953,0z" id="path3289"/>
   <path fill="#a2ae98" fill-rule="nonzero" stroke-width="3.543307" stroke-linecap="round" stroke-linejoin="round" stroke-miterlimit="4" stroke-dashoffset="0" d="m159.365372,177.473312c-7.364197,0.994965 -12.667542,6.851746 -12.66748,13.537415c1.680023,-5.767883 7.032135,-9.619568 13.827026,-10.537598c5.012024,-0.677155 9.716034,0.046173 13.262421,2.89856c-3.085144,-4.221649 -8.608063,-6.683899 -14.421967,-5.898376z" id="path3291"/>
   <path fill="#ececec" fill-rule="nonzero" stroke-width="3.543307" stroke-linecap="round" stroke-linejoin="round" stroke-miterlimit="4" stroke-dashoffset="0" id="path3293" d="m158.517227,175.110092c-7.363922,0.996735 -13.121368,5.906494 -13.119415,12.592133c1.678406,-5.76825 6.915253,-10.358795 13.7099,-11.278503c5.01178,-0.678375 9.8302,0.781372 13.37738,3.632904c-3.086334,-4.220886 -8.154175,-5.733459 -13.967865,-4.946533z"/>
   <path fill="#a2ae98" fill-rule="nonzero" stroke-width="3.543307" stroke-linecap="round" stroke-linejoin="round" stroke-miterlimit="4" stroke-dashoffset="0" id="path3295" d="m168.932388,207.282089c6.939697,-2.486359 10.243805,-10.236481 8.63382,-16.754242c-0.248932,5.968964 -4.250488,11.521637 -10.653717,13.815796c-4.723114,1.6922 -9.771912,1.26004 -13.916107,-0.790466c4.024231,3.480377 10.457184,5.691864 15.936005,3.728912z"/>
   <path fill="#ececec" fill-rule="nonzero" stroke-width="3.543307" stroke-linecap="round" stroke-linejoin="round" stroke-miterlimit="4" stroke-dashoffset="0" d="m164.736038,204.012497c7.225006,-1.651154 11.888672,-7.956238 11.186951,-14.610321c-1.066772,5.891418 -5.342773,10.296875 -12.009277,11.820404c-4.917267,1.123749 -10.321594,0.734314 -14.150574,-1.786346c3.513611,3.924866 9.26886,5.879822 14.9729,4.576263z" id="path3297"/>
   <g id="g3356">
    <path fill="#c4ccbe" fill-rule="nonzero" stroke-width="3.543307" stroke-linecap="round" stroke-linejoin="round" stroke-miterlimit="4" stroke-dashoffset="0" d="m240.148834,341.695953a10.169795,10.169795 0 1 1-20.339584,0a10.169795,10.169795 0 1 120.339584,0z" id="path3358"/>
    <path fill="#a2ae98" fill-rule="nonzero" stroke-width="3.543307" stroke-linecap="round" stroke-linejoin="round" stroke-miterlimit="4" stroke-dashoffset="0" d="m228.669357,332.544373c-4.694702,0.685913 -8.075623,4.723572 -8.075577,9.332581c1.07103,-3.976318 4.483032,-6.631622 8.814804,-7.264526c3.195175,-0.466827 6.194016,0.03183 8.454834,1.99826c-1.966782,-2.91037 -5.487656,-4.607819 -9.194061,-4.066315z" id="path3360"/>
    <path fill="#ececec" fill-rule="nonzero" stroke-width="3.543307" stroke-linecap="round" stroke-linejoin="round" stroke-miterlimit="4" stroke-dashoffset="0" id="path3362" d="m228.128662,330.915192c-4.694519,0.687134 -8.364929,4.071899 -8.363678,8.680939c1.069977,-3.976624 4.408508,-7.141296 8.740112,-7.77533c3.195053,-0.467651 6.2668,0.538666 8.528137,2.504486c-1.967545,-2.909851 -5.198303,-3.952576 -8.904572,-3.410095z"/>
    <path fill="#a2ae98" fill-rule="nonzero" stroke-width="3.543307" stroke-linecap="round" stroke-linejoin="round" stroke-miterlimit="4" stroke-dashoffset="0" id="path3364" d="m234.768372,353.09433c4.424103,-1.714081 6.530472,-7.056946 5.50412,-11.550262c-0.158722,4.11499 -2.709732,7.942963 -6.791809,9.524536c-3.011002,1.166595 -6.229645,0.868652 -8.871567,-0.544952c2.56546,2.399353 6.666489,3.92395 10.159256,2.570679z"/>
    <path fill="#ececec" fill-rule="nonzero" stroke-width="3.543307" stroke-linecap="round" stroke-linejoin="round" stroke-miterlimit="4" stroke-dashoffset="0" d="m232.093185,350.840302c4.605988,-1.138275 7.579086,-5.484955 7.131744,-10.072266c-0.680069,4.061523 -3.406052,7.098633 -7.65596,8.148926c-3.134781,0.774719 -6.580078,0.506226 -9.021072,-1.231476c2.239944,2.70575 5.908936,4.053497 9.545288,3.154816z" id="path3366"/>
   </g>
   <g id="g3368">
    <path fill="#c4ccbe" fill-rule="nonzero" stroke-width="3.543307" stroke-linecap="round" stroke-linejoin="round" stroke-miterlimit="4" stroke-dashoffset="0" id="path3370" d="m169.882523,352.666504a7.745438,7.745438 0 1 1-15.490875,0a7.745438,7.745438 0 1 115.490875,0z"/>
    <path fill="#a2ae98" fill-rule="nonzero" stroke-width="3.543307" stroke-linecap="round" stroke-linejoin="round" stroke-miterlimit="4" stroke-dashoffset="0" id="path3372" d="m161.139587,345.696503c-3.575546,0.5224 -6.150497,3.597534 -6.150452,7.107819c0.815689,-3.028412 3.414322,-5.050751 6.71344,-5.532776c2.433487,-0.35553 4.717453,0.024261 6.439316,1.521912c-1.497925,-2.216583 -4.179474,-3.509369 -7.002304,-3.096954z"/>
    <path fill="#ececec" fill-rule="nonzero" stroke-width="3.543307" stroke-linecap="round" stroke-linejoin="round" stroke-miterlimit="4" stroke-dashoffset="0" d="m160.727783,344.455688c-3.575409,0.523346 -6.370834,3.101196 -6.369873,6.611511c0.814911,-3.028625 3.357574,-5.438873 6.65657,-5.921753c2.433395,-0.356201 4.772873,0.410248 6.495132,1.90744c-1.498505,-2.216187 -3.959091,-3.010345 -6.78183,-2.597198z" id="path3374"/>
    <path fill="#a2ae98" fill-rule="nonzero" stroke-width="3.543307" stroke-linecap="round" stroke-linejoin="round" stroke-miterlimit="4" stroke-dashoffset="0" d="m165.784668,361.347626c3.369446,-1.305481 4.973679,-5.374664 4.192001,-8.796844c-0.12088,3.134033 -2.063766,6.049438 -5.172729,7.253998c-2.293213,0.888489 -4.744568,0.661591 -6.756683,-0.415039c1.953888,1.827362 5.077271,2.988525 7.737411,1.957886z" id="path3376"/>
    <path fill="#ececec" fill-rule="nonzero" stroke-width="3.543307" stroke-linecap="round" stroke-linejoin="round" stroke-miterlimit="4" stroke-dashoffset="0" id="path3378" d="m163.747208,359.63092c3.50798,-0.866943 5.772324,-4.177429 5.431625,-7.671173c-0.517944,3.093292 -2.594101,5.406403 -5.830872,6.206329c-2.387482,0.590027 -5.011475,0.385529 -6.87056,-0.937927c1.705963,2.06073 4.50032,3.087189 7.269806,2.402771z"/>
   </g>
   <g id="g3380">
    <path fill="#c4ccbe" fill-rule="nonzero" stroke-width="3.543307" stroke-linecap="round" stroke-linejoin="round" stroke-miterlimit="4" stroke-dashoffset="0" d="m210.959259,338.783417a6.013743,6.013743 0 1 1-12.027496,0a6.013743,6.013743 0 1 112.027496,0z" id="path3382"/>
    <path fill="#a2ae98" fill-rule="nonzero" stroke-width="3.543307" stroke-linecap="round" stroke-linejoin="round" stroke-miterlimit="4" stroke-dashoffset="0" d="m204.171036,333.371765c-2.776138,0.405609 -4.775391,2.793182 -4.77536,5.518677c0.633331,-2.351349 2.65097,-3.921539 5.212494,-4.295776c1.889404,-0.276062 3.66272,0.018829 4.999619,1.181641c-1.16301,-1.721008 -3.245026,-2.724762 -5.436752,-2.404541z" id="path3384"/>
    <path fill="#ececec" fill-rule="nonzero" stroke-width="3.543307" stroke-linecap="round" stroke-linejoin="round" stroke-miterlimit="4" stroke-dashoffset="0" id="path3386" d="m203.851303,332.408356c-2.776031,0.406342 -4.946457,2.407837 -4.945724,5.133331c0.632721,-2.351501 2.606903,-4.22287 5.16832,-4.597809c1.889343,-0.27655 3.70578,0.318542 5.042984,1.480988c-1.163483,-1.720703 -3.073944,-2.33728 -5.265579,-2.01651z"/>
    <path fill="#a2ae98" fill-rule="nonzero" stroke-width="3.543307" stroke-linecap="round" stroke-linejoin="round" stroke-miterlimit="4" stroke-dashoffset="0" id="path3388" d="m207.777588,345.523651c2.616119,-1.013611 3.861694,-4.173035 3.254776,-6.830078c-0.093857,2.43335 -1.602356,4.69693 -4.016235,5.632172c-1.780502,0.68985 -3.683792,0.513672 -5.246048,-0.322235c1.517044,1.418823 3.942123,2.320343 6.007507,1.520142z"/>
    <path fill="#ececec" fill-rule="nonzero" stroke-width="3.543307" stroke-linecap="round" stroke-linejoin="round" stroke-miterlimit="4" stroke-dashoffset="0" d="m206.195663,344.190765c2.723663,-0.673126 4.481766,-3.243469 4.217239,-5.956085c-0.402145,2.401733 -2.014114,4.197662 -4.527237,4.818726c-1.853699,0.45813 -3.891022,0.299377 -5.334457,-0.72821c1.324554,1.600006 3.494156,2.396973 5.644455,1.86557z" id="path3390"/>
   </g>
   <g id="g3394">
    <path fill="#c4ccbe" fill-rule="nonzero" stroke-width="3.543307" stroke-linecap="round" stroke-linejoin="round" stroke-miterlimit="4" stroke-dashoffset="0" id="path3396" d="m316.7836,351.503021a12.565212,9.999142 0 1 1-25.130432,7.505585a12.565212,9.999142 0 1 125.130432,-7.505585z"/>
    <path fill="#a2ae98" fill-rule="nonzero" stroke-width="3.543307" stroke-linecap="round" stroke-linejoin="round" stroke-miterlimit="4" stroke-dashoffset="0" id="path3398" d="m299.91275,346.741119c-5.599091,2.406799 -8.590668,7.624298 -7.237152,12.155975c0.155609,-4.30481 3.591553,-8.174652 8.757782,-10.395416c3.810699,-1.638062 7.662323,-2.254364 11.033112,-1.155243c-3.284668,-2.135742 -8.133331,-2.505463 -12.553741,-0.605316z"/>
    <path fill="#ececec" fill-rule="nonzero" stroke-width="3.543307" stroke-linecap="round" stroke-linejoin="round" stroke-miterlimit="4" stroke-dashoffset="0" d="m298.766296,345.338776c-5.598511,2.40799 -9.139526,7.090363 -7.784485,11.621613c0.154236,-4.304718 3.349823,-8.648254 8.515503,-10.870087c3.810303,-1.638855 7.901093,-1.782898 11.272339,-0.68454c-3.285492,-2.134979 -7.583435,-1.968018 -12.003357,-0.066986z" id="path3400"/>
    <path fill="#a2ae98" fill-rule="nonzero" stroke-width="3.543307" stroke-linecap="round" stroke-linejoin="round" stroke-miterlimit="4" stroke-dashoffset="0" d="m313.482941,364.695618c4.962799,-3.317871 5.996368,-9.348358 3.408752,-13.387543c1.012299,4.104523 -1.015472,8.809601 -5.594635,11.870972c-3.377655,2.258118 -7.441895,3.152924 -11.121216,2.737946c3.874298,1.412384 9.389008,1.398041 13.307098,-1.221375z" id="path3402"/>
    <path fill="#ececec" fill-rule="nonzero" stroke-width="3.543307" stroke-linecap="round" stroke-linejoin="round" stroke-miterlimit="4" stroke-dashoffset="0" id="path3404" d="m309.515717,363.466583c5.356628,-2.818848 7.753601,-8.189697 5.85379,-12.534943c0.352448,4.244324 -2.123779,8.236389 -7.066284,10.837311c-3.64566,1.918518 -7.981323,2.925903 -11.507538,2.118103c3.562103,1.833771 8.491058,1.804993 12.720032,-0.420471z"/>
   </g>
   <g id="g3406">
    <path fill="#c4ccbe" fill-rule="nonzero" stroke-width="3.543307" stroke-linecap="round" stroke-linejoin="round" stroke-miterlimit="4" stroke-dashoffset="0" id="path3408" d="m379.709229,193.97406a12.692703,16.156067 0 1 1-25.385406,0a12.692703,16.156067 0 1 125.385406,0z"/>
    <path fill="#a2ae98" fill-rule="nonzero" stroke-width="3.543307" stroke-linecap="round" stroke-linejoin="round" stroke-miterlimit="4" stroke-dashoffset="0" id="path3410" d="m365.381897,179.435532c-5.859344,1.089661 -10.07901,7.503983 -10.078949,14.82605c1.336731,-6.316925 5.595154,-10.535263 11.001556,-11.540695c3.987823,-0.741608 7.730621,0.050583 10.552307,3.174484c-2.454681,-4.623505 -6.84903,-7.320099 -11.474915,-6.459839z"/>
    <path fill="#ececec" fill-rule="nonzero" stroke-width="3.543307" stroke-linecap="round" stroke-linejoin="round" stroke-miterlimit="4" stroke-dashoffset="0" d="m364.707062,176.847321c-5.859131,1.091644 -10.440094,6.46875 -10.438507,13.790848c1.335419,-6.317368 5.502136,-11.344894 10.908325,-12.352127c3.987701,-0.742966 7.821472,0.855743 10.643799,3.978714c-2.455658,-4.622726 -6.487915,-6.279236 -11.113617,-5.417435z" id="path3412"/>
    <path fill="#a2ae98" fill-rule="nonzero" stroke-width="3.543307" stroke-linecap="round" stroke-linejoin="round" stroke-miterlimit="4" stroke-dashoffset="0" d="m372.993958,212.081863c5.521606,-2.723053 8.150543,-11.210907 6.869568,-18.349152c-0.19809,6.537231 -3.381958,12.618439 -8.476715,15.130997c-3.757965,1.853287 -7.775085,1.379974 -11.072418,-0.865707c3.201904,3.811661 8.320313,6.233673 12.679565,4.083862z" id="path3414"/>
    <path fill="#ececec" fill-rule="nonzero" stroke-width="3.543307" stroke-linecap="round" stroke-linejoin="round" stroke-miterlimit="4" stroke-dashoffset="0" id="path3416" d="m369.655121,208.501038c5.748627,-1.808334 9.45929,-8.713608 8.90094,-16.001129c-0.848755,6.452255 -4.251007,11.2771 -9.555237,12.945633c-3.912445,1.230728 -8.212433,0.804214 -11.259003,-1.956375c2.795624,4.298447 7.374847,6.439514 11.9133,5.011871z"/>
   </g>
   <path fill="#a2ae98" fill-rule="nonzero" stroke-width="3.543307" stroke-linecap="round" stroke-linejoin="round" stroke-miterlimit="4" stroke-dashoffset="0" id="path3425" d="m204.174423,222.099075c-6.112427,4.226074 -8.183472,11.850922 -5.151825,17.809692c-1.118042,-5.902618 1.90567,-11.762451 7.545563,-15.661804c4.160065,-2.876221 8.680695,-4.364563 13.134918,-3.430359c-4.664032,-2.363739 -10.703003,-2.053925 -15.528656,1.282471z"/>
   <path fill="#ececec" fill-rule="nonzero" stroke-width="3.543307" stroke-linecap="round" stroke-linejoin="round" stroke-miterlimit="4" stroke-dashoffset="0" d="m204.92363,218.43251c-6.852875,2.87381 -11.138763,9.109619 -9.401672,15.565643c0.123779,-6.006195 3.989777,-11.798615 10.312866,-14.450256c4.664001,-1.955902 9.696167,-1.796722 13.861847,0.036438c-4.07605,-3.275238 -9.362793,-3.420654 -14.773041,-1.151825z" id="path3427"/>
  </g>
 </g>
</svg>